<?xml version="1.0" encoding="UTF-8"?>
<svg width="14px" height="14px" viewBox="0 0 14 14" version="1.1" xmlns="http://www.w3.org/2000/svg" xmlns:xlink="http://www.w3.org/1999/xlink">
    <!-- Generator: Sketch 53.1 (72631) - https://sketchapp.com -->
    <title>add</title>
    <desc>Created with Sketch.</desc>
    <g id="desktop" stroke="none" stroke-width="1" fill="none" fill-rule="evenodd">
        <g id="Artboard" transform="translate(-48.000000, -790.000000)" fill="#23253F" fill-rule="nonzero">
            <g id="add" transform="translate(48.000000, 790.000000)">
                <path d="M12.8333333,5.83219292 L12.8330417,5.83219292 L8.16520833,5.83310292 L8.16424583,1.166375 C8.16413631,0.522135344 7.64181883,-5.15526071e-05 6.99757917,0 L6.99743625,0 C6.68799123,3.7897344e-05 6.39123751,0.123010981 6.17246759,0.341862399 C5.95369768,0.560713818 5.83083514,0.857513324 5.8309125,1.16695833 L5.831875,5.83356958 L1.166375,5.83447958 C0.522042792,5.83456012 -0.000226374859,6.35695988 -0.000145833333,7.00129208 C-6.52918073e-05,7.64562429 0.522334459,8.16789346 1.16666667,8.16781292 L1.16695833,8.16781292 L5.83237667,8.16690292 L5.83333333,12.833625 C5.83344286,13.4778647 6.35576034,14.0000516 7,14 L7.00029167,14 C7.30971376,13.9999319 7.60643466,13.8769444 7.82517442,13.6580953 C8.04391417,13.4392461 8.16675331,13.1424638 8.16666667,12.8330417 L8.16570417,8.16643042 L12.833625,8.16552625 C13.4779572,8.1654457 14.0002264,7.64304595 14.0001458,6.99871375 C14.0000653,6.35438155 13.4776655,5.83211238 12.8333333,5.83219292 Z" id="Path"></path>
            </g>
        </g>
    </g>
</svg>