<svg xmlns="http://www.w3.org/2000/svg" width="18" height="20" viewBox="0 0 18 20">
    <path fill="#23253F" fill-rule="nonzero" d="M16.562 12.884c-.661-.653-1.345-1.329-1.345-4.52 0-3.232-2.373-5.92-5.469-6.414a1.246 1.246 0 1 0-2.273-.704A1.24 1.24 0 0 0 8.94.704c-4.341 1.74-6.714 4.429-6.714 7.661 0 3.19-.684 3.866-1.345 4.52-1.873 1.849-.501 4.557 1.725 4.557H6.23a2.492 2.492 0 0 0 4.984 0h3.623c2.227 0 3.598-2.71 1.726-4.558zm-7.841 5.492a.935.935 0 0 1-.934-.934h1.868c0 .515-.419.934-.934.934zm6.116-2.803H2.605c-.653 0-.979-.794-.52-1.253 1.113-1.113 2.009-2.17 2.009-5.955A4.633 4.633 0 0 1 8.72 3.738a4.633 4.633 0 0 1 4.627 4.627c0 3.802.904 4.85 2.008 5.955.462.461.13 1.253-.519 1.253z"/>
</svg>
