<?xml version="1.0" encoding="UTF-8"?>
<svg width="16px" height="16px" viewBox="0 0 16 16" version="1.1" xmlns="http://www.w3.org/2000/svg" xmlns:xlink="http://www.w3.org/1999/xlink">
    <!-- Generator: Sketch 53.1 (72631) - https://sketchapp.com -->
    <title>cancel</title>
    <desc>Created with Sketch.</desc>
    <g id="desktop" stroke="none" stroke-width="1" fill="none" fill-rule="evenodd">
        <g id="Artboard" transform="translate(-327.000000, -146.000000)" fill="#23253F" fill-rule="nonzero">
            <g id="cancel" transform="translate(335.142136, 154.142136) rotate(-315.000000) translate(-335.142136, -154.142136) translate(325.142136, 144.142136)">
                <path d="M18.3335417,8.33170417 L18.333125,8.33170417 L11.6647917,8.33300417 L11.6634167,1.66625 C11.6632602,0.745907635 10.9170924,-7.36465815e-05 9.99675,0 L9.99654583,0 C9.55448152,5.41390629e-05 9.13054763,0.175729973 8.81801918,0.488374856 C8.50549073,0.801019739 8.32997281,1.22501903 8.33008333,1.66708333 L8.33145833,8.33367083 L1.66645833,8.33497083 C0.74598375,8.33508589 -0.000115059322,9.08137125 3.99680289e-13,10.0018458 C0.000115059323,10.9223204 0.746400417,11.6684192 1.666875,11.6683042 L1.66729167,11.6683042 L8.332175,11.6670042 L8.33354167,18.33375 C8.33369813,19.2540924 9.07986596,20.0000736 10.0002083,20 L10.000625,20 C10.4426566,19.9999028 10.8665436,19.8242063 11.1790289,19.5115647 C11.4915143,19.198923 11.6669988,18.7749482 11.666875,18.3329167 L11.6655,11.6663292 L18.3339583,11.6650375 C19.2544329,11.6649224 20.0005317,10.9186371 20.0004166,9.9981625 C20.0003016,9.07768793 19.2540162,8.33158912 18.3335417,8.33170417 Z" id="Path"></path>
            </g>
        </g>
    </g>
</svg>