<?xml version="1.0" encoding="UTF-8"?>
<svg width="27px" height="23px" viewBox="0 0 27 23" version="1.1" xmlns="http://www.w3.org/2000/svg" xmlns:xlink="http://www.w3.org/1999/xlink">
    <!-- Generator: Sketch 53.1 (72631) - https://sketchapp.com -->
    <title>clothing</title>
    <desc>Created with Sketch.</desc>
    <g id="desktop" stroke="none" stroke-width="1" fill="none" fill-rule="evenodd">
        <g id="Artboard" transform="translate(-242.000000, -612.000000)" fill="#23253F" fill-rule="nonzero">
            <g id="clothing" transform="translate(242.000000, 612.000000)">
                <path d="M13.1428571,2.73809524 C14.6548387,2.7375482 15.8804053,1.51198159 15.8809524,0 L10.4047619,0 C10.4053089,1.51198159 11.6308755,2.7375482 13.1428571,2.73809524 Z" id="Path"></path>
                <path d="M26.1214286,5.64598524 L20.815,0.547619048 L20.4042857,0.153333333 C20.2997676,0.0567326682 20.163259,0.0021292232 20.0209524,0 L16.9761905,0 C16.9738666,2.1161282 15.2589853,3.83100942 13.1428571,3.83333333 C11.0267302,3.83100641 9.31185073,2.11612695 9.30952381,7.31489094e-16 L6.2647619,7.31489094e-16 C6.12245577,0.00213179839 5.98594805,0.0567348889 5.88142857,0.153333333 L5.47071429,0.547619048 L0.164285714,5.64598524 C0.059204015,5.74916256 6.98133838e-06,5.8902489 6.98133838e-06,6.03751643 C6.98133838e-06,6.18478395 0.059204015,6.32587029 0.164285714,6.42904762 L3.5102381,9.69833333 C3.72343033,9.90643122 4.06371253,9.90643122 4.27690476,9.69833333 L6.57142857,7.66666667 L6.57142857,22.452381 C6.5723068,22.7544581 6.81697049,22.9991218 7.11904762,23 L19.1666667,23 C19.468745,22.9991248 19.7134105,22.7544593 19.7142857,22.452381 L19.7142857,7.66666667 L22.0088095,9.69833333 C22.2220018,9.90643122 22.562284,9.90643122 22.7754762,9.69833333 L26.1214286,6.42904762 C26.2265103,6.32587029 26.2857073,6.18478395 26.2857073,6.03751643 C26.2857073,5.8902489 26.2265103,5.74916256 26.1214286,5.64598524 L26.1214286,5.64598524 Z" id="Path"></path>
            </g>
        </g>
    </g>
</svg>