<?xml version="1.0" encoding="UTF-8"?>
<svg width="24px" height="24px" viewBox="0 0 24 24" version="1.1" xmlns="http://www.w3.org/2000/svg" xmlns:xlink="http://www.w3.org/1999/xlink">
    <!-- Generator: Sketch 53.1 (72631) - https://sketchapp.com -->
    <title>comment-question</title>
    <desc>Created with Sketch.</desc>
    <g id="desktop" stroke="none" stroke-width="1" fill="none" fill-rule="evenodd">
        <g id="Artboard" transform="translate(-595.000000, -822.000000)" fill="#23253F" fill-rule="nonzero">
            <g id="comment-question" transform="translate(595.000000, 822.000000)">
                <path d="M2.52631579,0.155526316 L21.4736842,0.155526316 C22.7804589,0.155526316 23.8421053,1.21539474 23.8421053,2.52394737 L23.8421053,16.7344737 C23.8421053,18.0418421 22.7804589,19.1028947 21.4736842,19.1028947 L14.2550905,19.1052632 L9.86522526,23.4927632 C9.63714316,23.7208421 9.34078421,23.8366579 9.04184211,23.8397368 L9.03947368,23.8421053 L8.44736842,23.8421053 C7.79335263,23.8421053 7.26315789,23.3119326 7.26315789,22.6578947 L7.26315789,19.1052632 L2.52631579,19.1052632 C1.21827158,19.1052632 0.157894737,18.0449211 0.157894737,16.7368421 L0.169464316,2.52394737 C0.169464316,1.21539474 1.21893474,0.155526316 2.52631579,0.155526316 Z M12.2196726,4.30026316 C11.1743684,4.30026316 10.3297895,4.51555263 9.68936842,4.94565789 C9.05369684,5.37161684 8.71079684,6.06047368 8.76654947,6.90007895 L11.09562,6.90007895 C11.1050937,6.56826316 11.2167632,6.31863158 11.4287368,6.15059368 C11.6405905,5.98267263 11.9041958,5.89859053 12.2196726,5.89859053 C12.6105789,5.89859053 12.9121989,6.00138316 13.1240526,6.20613158 C13.3360263,6.411 13.4409474,6.6855 13.4409474,7.02951158 C13.4409474,7.36132737 13.3494063,7.65453789 13.1657368,7.90843263 C12.9868011,8.16244737 12.7387105,8.37477474 12.4232368,8.54684211 C11.8111168,8.91951158 11.3911958,9.24777789 11.1603947,9.53447368 C10.9297105,9.82117263 10.8112895,10.2511579 10.8065526,10.8204063 L13.1934474,10.8204063 C13.1934474,10.4804211 13.2448421,10.2120789 13.3484589,10.0155 C13.4566958,9.81477789 13.6622747,9.62778947 13.9636579,9.45584211 C14.5051989,9.21 14.9497484,8.87285368 15.2982632,8.44275158 C15.6513947,8.01264316 15.8278421,7.54156421 15.8278421,7.02951158 C15.8278421,6.19405263 15.5062105,5.52959053 14.8610526,5.03814316 C14.2206316,4.54669579 13.3404095,4.30026316 12.2196726,4.30026316 Z M10.8157895,12 L10.8157895,14.3684211 L13.1842105,14.3684211 L13.1842105,12 L10.8157895,12 Z" id="Shape"></path>
            </g>
        </g>
    </g>
</svg>