<svg xmlns="http://www.w3.org/2000/svg" width="20" height="20" viewBox="0 0 20 20">
    <path fill="#23253F" fill-rule="nonzero" d="M0 10c0 5.525 4.475 10 10 10s10-4.475 10-10S15.525 0 10 0 0 4.475 0 10zm2.083 0c0-.642.075-1.267.221-1.862L4.167 10l-.417 2.5 1.667 1.667v2.287A7.905 7.905 0 0 1 2.083 10zM8.18 2.296A7.699 7.699 0 0 1 10 2.083c.696 0 1.37.092 2.013.259l-.346.575.416.416h1.25l.346-.345c.291.154.566.32.834.508l-.763.254-.833.833.833.417v.417h-.833v.833s.575.417 1.25.417c.662 0 .366-.913.833-1.25.47-.338 1.042-.263 1.042-.263l.27.071c.509.67.913 1.42 1.188 2.233V7.5s-.587-.417-1.667-.417c-1.079 0-2.083.417-2.083.417s-1.175.342-1.25 1.25c-.13 1.563.417 2.083.417 2.083L15 12.083v4.055a7.88 7.88 0 0 1-5 1.779 7.88 7.88 0 0 1-2.558-.421L9.583 12.5l-.416-2.083s-1.655-2.084-2.5-2.084c-.846 0-1.25 1.25-1.25 1.25l-.834-1.666 2.5-1.667 1.25-3.333-.154-.621z" opacity=".2"/>
</svg>
