<?xml version="1.0" encoding="UTF-8"?>
<svg width="17px" height="21px" viewBox="0 0 17 21" version="1.1" xmlns="http://www.w3.org/2000/svg" xmlns:xlink="http://www.w3.org/1999/xlink">
    <!-- Generator: Sketch 53.1 (72631) - https://sketchapp.com -->
    <title>education</title>
    <desc>Created with Sketch.</desc>
    <g id="desktop" stroke="none" stroke-width="1" fill="none" fill-rule="evenodd">
        <g id="Artboard" transform="translate(-247.000000, -333.000000)" fill="#23253F" fill-rule="nonzero">
            <g id="education" transform="translate(247.000000, 333.000000)">
                <path d="M16.5,8.32667268e-16 L14.5,8.32667268e-16 L14.5,4 L13,3.5 L11.5,4 L11.5,8.32667268e-16 L0,-0.00010440553 L0,21.0001044 L16.5,21 C16.768694,21.0054922 16.9917148,20.7936224 17,20.525 L17,0.475 C16.9917148,0.206377572 16.768694,-0.00549216306 16.5,8.32667268e-16 Z M3,19.25 C3.00066014,19.3165043 2.97453297,19.3804771 2.92750501,19.427505 C2.88047706,19.474533 2.8165043,19.5006601 2.75,19.5 L1.75,19.5 C1.6834957,19.5006601 1.61952294,19.474533 1.57249499,19.427505 C1.52546703,19.3804771 1.49933986,19.3165043 1.5,19.25 L1.5,1.75 C1.49933986,1.6834957 1.52546703,1.61952294 1.57249499,1.57249499 C1.61952294,1.52546703 1.6834957,1.49933986 1.75,1.5 L2.75,1.5 C2.8165043,1.49933986 2.88047706,1.52546703 2.92750501,1.57249499 C2.97453297,1.61952294 3.00066014,1.6834957 3,1.75 L3,19.25 Z M12.75,11.5 L6.25,11.5 C5.83578644,11.5 5.5,11.1642136 5.5,10.75 C5.5,10.3357864 5.83578644,10 6.25,10 L12.75,10 C13.1642136,10 13.5,10.3357864 13.5,10.75 C13.5,11.1642136 13.1642136,11.5 12.75,11.5 Z M12.75,8.5 L6.25,8.5 C5.83578644,8.5 5.5,8.16421356 5.5,7.75 C5.5,7.33578644 5.83578644,7 6.25,7 L12.75,7 C13.1642136,7 13.5,7.33578644 13.5,7.75 C13.5,8.16421356 13.1642136,8.5 12.75,8.5 Z" id="Shape"></path>
            </g>
        </g>
    </g>
</svg>