<svg xmlns="http://www.w3.org/2000/svg" width="16" height="24" viewBox="0 0 16 24">
    <g fill="#23253F" fill-rule="nonzero">
        <path d="M14 3.5H2a2.006 2.006 0 0 0-2 2V22a2.006 2.006 0 0 0 2 2h12a2.006 2.006 0 0 0 2-2V5.5a2.006 2.006 0 0 0-2-2zM7 6a1.003 1.003 0 0 1 1-1c.55.004.996.45 1 1v1.5a1 1 0 1 1-2 0V6zM4.5 8h.1A2.4 2.4 0 0 1 7 10.4v1.1h-.1a2.4 2.4 0 0 1-2.4-2.4V8zm0 4h.1A2.4 2.4 0 0 1 7 14.4v1.1h-.1a2.4 2.4 0 0 1-2.4-2.4V12zm0 5.1V16h.1A2.4 2.4 0 0 1 7 18.4v1.1h-.1a2.4 2.4 0 0 1-2.4-2.4zM9 21.5a1 1 0 0 1-2 0v-.75a.248.248 0 0 1 .25-.25h1.5a.248.248 0 0 1 .25.25v.75zm2.5-4.4a2.4 2.4 0 0 1-2.4 2.4H9v-1.1a2.4 2.4 0 0 1 2.4-2.4h.1v1.1zm0-4a2.4 2.4 0 0 1-2.4 2.4H9v-1.1a2.4 2.4 0 0 1 2.4-2.4h.1v1.1zm0-4a2.4 2.4 0 0 1-2.4 2.4H9v-1.1A2.4 2.4 0 0 1 11.4 8h.1v1.1zM2.25 2.5h11.5a1.25 1.25 0 0 0 0-2.5H2.25a1.25 1.25 0 1 0 0 2.5z"/>
    </g>
</svg>
