<?xml version="1.0" encoding="UTF-8"?>
<svg width="26px" height="20px" viewBox="0 0 26 20" version="1.1" xmlns="http://www.w3.org/2000/svg" xmlns:xlink="http://www.w3.org/1999/xlink">
    <!-- Generator: Sketch 53.1 (72631) - https://sketchapp.com -->
    <title>food</title>
    <desc>Created with Sketch.</desc>
    <g id="desktop" stroke="none" stroke-width="1" fill="none" fill-rule="evenodd">
        <g id="Artboard" transform="translate(-242.000000, -403.000000)" fill="#23253F" fill-rule="nonzero">
            <g id="food" transform="translate(242.000000, 403.000000)">
                <path d="M25.4583333,12.3802412 L0.541666667,12.3802412 C0.242512427,12.3802412 3.66358282e-17,12.6227537 0,12.9219079 C4.76265766e-16,16.810913 3.15266155,19.9635746 7.04166667,19.9635746 L18.9583333,19.9635746 C20.8258994,19.9635746 22.6169749,19.2216868 23.9375436,17.9011182 C25.2581122,16.5805495 26,14.789474 26,12.9219079 C26,12.778249 25.9429317,12.6404739 25.8413495,12.5388917 C25.7397673,12.4373095 25.6019923,12.3802412 25.4583333,12.3802412 Z" id="Path"></path>
                <path d="M11.3145988,6.54284583 L9.96720833,6.181825 C8.52241031,5.79471441 7.03734876,6.65211233 6.65019333,8.09689833 L6.55468125,8.45342333 L7.90203917,8.81444958 C8.59585829,9.00036779 9.33511637,8.90304771 9.95717986,8.54389932 C10.5792434,8.18475094 11.0331543,7.59319486 11.2190542,6.89937083 L11.3145988,6.54284583 Z" id="Path"></path>
                <path d="M11.0135133,9.64816667 L12.3609037,10.0091875 C13.8057014,10.3963213 15.2907765,9.53892042 15.6779187,8.094125 L15.7734308,7.7376 L14.4260729,7.37657375 C13.7322527,7.19066095 12.9929958,7.2879825 12.3709314,7.64712866 C11.748867,8.00627481 11.2949515,8.59782602 11.1090417,9.29164708 L11.0135133,9.64816667 Z" id="Path"></path>
                <path d="M15.4723779,10.8429208 L16.8197358,11.2039417 C18.2645368,11.5910747 19.7496134,10.7336681 20.1367508,9.28886833 L20.2322954,8.93234333 L18.884905,8.57133333 C17.4401024,8.18420063 15.955025,9.04161009 15.56789,10.4864121 L15.4723779,10.8429208 Z" id="Path"></path>
                <path d="M10.3654579,4.69554583 L11.7128483,5.05656667 L11.8083604,4.70007417 C12.1954935,3.25527319 11.3380869,1.77019662 9.89328708,1.38305917 L8.54592917,1.02203833 L8.45038458,1.37853083 C8.06325152,2.82333181 8.92065811,4.30840838 10.3654579,4.69554583 L10.3654579,4.69554583 Z" id="Path"></path>
                <path d="M14.8243333,5.89029458 L16.1716912,6.25131542 L16.2672358,5.89482292 C16.4531483,5.20100118 16.3558252,4.46174308 15.9966769,3.83967837 C15.6375285,3.21761366 15.0459747,2.76369913 14.3521517,2.57779167 L13.0047613,2.21673833 L12.9092492,2.57326333 C12.7233367,3.26708507 12.8206598,4.00634317 13.1798081,4.62840788 C13.5389565,5.25047259 14.1305103,5.70438712 14.8243333,5.89029458 L14.8243333,5.89029458 Z" id="Path"></path>
                <path d="M19.2831546,7.08504333 L20.630545,7.44606417 L20.7260571,7.08953917 C20.9119722,6.39572729 20.8146529,5.65647742 20.4555088,5.03442043 C20.0963647,4.41236344 19.504816,3.95845652 18.811,3.77255667 L17.4636421,3.41150333 L17.3680975,3.76802833 C16.9809634,5.21282438 17.8383614,6.69789867 19.2831546,7.08504333 L19.2831546,7.08504333 Z" id="Path"></path>
                <path d="M24.8902496,9.3839525 C24.9430718,9.18685926 24.9154304,8.97685461 24.8134069,8.80014263 C24.7113833,8.62343064 24.5433359,8.49448852 24.3462375,8.44168542 L21.621405,7.71157292 L21.2231554,9.19785208 L23.9479879,9.92796458 C24.1450803,9.9807822 24.3550822,9.95313865 24.5317922,9.85111565 C24.7085021,9.74909265 24.8374439,9.58104807 24.8902496,9.3839525 L24.8902496,9.3839525 Z" id="Path"></path>
                <path d="M3.23720583,5.97152292 C2.82710565,5.8624268 2.4061113,6.10599247 2.29627744,6.51589569 C2.18644357,6.9257989 2.42925133,7.34723083 2.83895625,7.45780208 L4.82068167,7.98878708 C5.0861789,8.05993237 5.36946402,7.98403223 5.56382626,7.78967751 C5.7581885,7.5953228 5.83409961,7.31204062 5.7629646,7.04654062 C5.69182959,6.78104063 5.48445557,6.5736586 5.21895833,6.50251333 L3.23720583,5.97152292 Z" id="Path"></path>
                <path d="M4.43195458,1.51269083 L6.41368,2.04368125 C6.82378019,2.15277737 7.24477453,1.9092117 7.35460839,1.49930848 C7.46444226,1.08940526 7.22163451,0.667973338 6.81192958,0.557402083 L4.83020417,0.0264170833 C4.419781,-0.0835565024 3.99791609,0.160006004 3.8879425,0.570429167 C3.77796891,0.98085233 4.02153142,1.40271725 4.43195458,1.51269083 L4.43195458,1.51269083 Z" id="Path"></path>
                <path d="M1.6537625,3.95425875 L7.10347083,5.41448375 C7.36915939,5.48618783 7.65291397,5.41052117 7.84762266,5.21604646 C8.04233134,5.02157176 8.11833916,4.73790837 8.0469546,4.47213379 C7.97557004,4.20635921 7.76766529,3.99895206 7.50172042,3.92820458 L2.05201208,2.46797958 C1.6419119,2.35888346 1.22091755,2.60244913 1.11108369,3.01235235 C1.00124982,3.42225557 1.24405758,3.8436875 1.6537625,3.95425875 L1.6537625,3.95425875 Z" id="Path"></path>
            </g>
        </g>
    </g>
</svg>