<svg xmlns="http://www.w3.org/2000/svg" width="26" height="20" viewBox="0 0 26 20">
    <g fill="#23253F" fill-rule="nonzero">
        <path d="M25.458 12.38H.542c-.3 0-.542.243-.542.542a7.042 7.042 0 0 0 7.042 7.042h11.916A7.042 7.042 0 0 0 26 12.922a.542.542 0 0 0-.542-.542zM11.315 6.543l-1.348-.361A2.708 2.708 0 0 0 6.65 8.097l-.095.356 1.347.361A2.708 2.708 0 0 0 11.219 6.9l.096-.356zM11.014 9.648l1.347.361a2.708 2.708 0 0 0 3.317-1.915l.095-.356-1.347-.361a2.708 2.708 0 0 0-3.317 1.915l-.095.356zM15.472 10.843l1.348.36a2.708 2.708 0 0 0 3.317-1.914l.095-.357-1.347-.36a2.708 2.708 0 0 0-3.317 1.914l-.096.357zM10.365 4.696l1.348.36.095-.356a2.708 2.708 0 0 0-1.915-3.317l-1.347-.361-.096.357a2.708 2.708 0 0 0 1.915 3.317zM14.824 5.89l1.348.361.095-.356a2.708 2.708 0 0 0-1.915-3.317l-1.347-.361-.096.356a2.708 2.708 0 0 0 1.915 3.317zM19.283 7.085l1.348.361.095-.356a2.708 2.708 0 0 0-1.915-3.317l-1.347-.361-.096.356a2.708 2.708 0 0 0 1.915 3.317zM24.89 9.384a.77.77 0 0 0-.544-.942l-2.725-.73-.398 1.486 2.725.73a.77.77 0 0 0 .942-.544zM3.237 5.972a.77.77 0 0 0-.398 1.486l1.982.53a.77.77 0 1 0 .398-1.485l-1.982-.531zM4.432 1.513l1.982.53A.77.77 0 0 0 6.812.558L4.83.027a.77.77 0 0 0-.398 1.486zM1.654 3.954l5.45 1.46a.77.77 0 1 0 .398-1.486l-5.45-1.46a.77.77 0 0 0-.398 1.486z"/>
    </g>
</svg>
