<?xml version="1.0" encoding="UTF-8"?>
<svg width="18px" height="26px" viewBox="0 0 18 26" version="1.1" xmlns="http://www.w3.org/2000/svg" xmlns:xlink="http://www.w3.org/1999/xlink">
    <!-- Generator: Sketch 53.1 (72631) - https://sketchapp.com -->
    <title>health</title>
    <desc>Created with Sketch.</desc>
    <g id="desktop" stroke="none" stroke-width="1" fill="none" fill-rule="evenodd">
        <g id="Artboard" transform="translate(-246.000000, -471.000000)" fill="#23253F" fill-rule="nonzero">
            <g id="health" transform="translate(246.000000, 471.000000)">
                <path d="M16.2117647,3.54823529 L1.43764706,3.54823529 C0.855525464,3.5499248 0.384042449,4.02140782 0.382352941,4.60352941 L0.382352941,16.2117647 L17.2670588,16.2117647 L17.2670588,4.60352941 C17.2653693,4.02140782 16.7938863,3.5499248 16.2117647,3.54823529 Z M11.9905882,11.4629412 L10.4076471,11.4629412 L10.4076471,13.0458824 C10.4076471,13.9201166 9.69894015,14.6288235 8.82470588,14.6288235 C7.95047161,14.6288235 7.24176471,13.9201166 7.24176471,13.0458824 L7.24176471,11.4629412 L5.65882353,11.4629412 C4.78458926,11.4629412 4.07588235,10.7542343 4.07588235,9.88 C4.07588235,9.00576573 4.78458926,8.29705882 5.65882353,8.29705882 L7.24176471,8.29705882 L7.24176471,6.71411765 C7.24176471,5.83988338 7.95047161,5.13117647 8.82470588,5.13117647 C9.69894015,5.13117647 10.4076471,5.83988338 10.4076471,6.71411765 L10.4076471,8.29705882 L11.9905882,8.29705882 C12.8648225,8.29705882 13.5735294,9.00576573 13.5735294,9.88 C13.5735294,10.7542343 12.8648225,11.4629412 11.9905882,11.4629412 L11.9905882,11.4629412 Z" id="Shape"></path>
                <path d="M3.54823529,2.49294118 L14.1011765,2.49294118 C14.6839993,2.49294118 15.1564706,2.02046991 15.1564706,1.43764706 C15.1564706,0.854824211 14.6839993,0.382352941 14.1011765,0.382352941 L3.54823529,0.382352941 C2.96541245,0.382352941 2.49294118,0.854824211 2.49294118,1.43764706 C2.49294118,2.02046991 2.96541245,2.49294118 3.54823529,2.49294118 Z" id="Path"></path>
                <path d="M0.382352941,25.7094118 L6.71411765,25.7094118 L6.71411765,20.4329412 C6.71582156,19.8508256 7.18729616,19.379351 7.76941176,19.3776471 L9.88,19.3776471 C10.4621156,19.379351 10.9335902,19.8508256 10.9352941,20.4329412 L10.9352941,25.7094118 L17.2670588,25.7094118 L17.2670588,17.2670588 L0.382352941,17.2670588 L0.382352941,25.7094118 Z" id="Path"></path>
            </g>
        </g>
    </g>
</svg>