<?xml version="1.0" encoding="UTF-8"?>
<svg width="16px" height="16px" viewBox="0 0 16 16" version="1.1" xmlns="http://www.w3.org/2000/svg" xmlns:xlink="http://www.w3.org/1999/xlink">
    <!-- Generator: Sketch 53.1 (72631) - https://sketchapp.com -->
    <title>link-variant</title>
    <desc>Created with Sketch.</desc>
    <g id="desktop" stroke="none" stroke-width="1" fill="none" fill-rule="evenodd">
        <g id="Artboard" transform="translate(-126.000000, -796.000000)" fill="#23253F" fill-rule="nonzero">
            <g id="link-variant" transform="translate(126.000000, 796.000000)">
                <path d="M7.02774417,9.07878124 C7.23265585,9.28369292 7.33511514,9.55228179 7.33511514,9.82087243 C7.33511514,10.0894631 7.23265585,10.3580519 7.02772436,10.5629834 C6.82276846,10.7678862 6.55418139,10.8703346 6.28560541,10.8703346 C6.01701913,10.8703346 5.7484426,10.7678792 5.54351286,10.5629644 C4.68776617,9.70722684 4.25989243,8.58563249 4.25989243,7.46403595 C4.25989243,6.34243992 4.68776581,5.22084201 5.54351266,4.3650963 L8.48949395,1.4191388 C9.34523026,0.563393504 10.4668333,0.135521622 11.5884368,0.135521622 C12.7100429,0.135521622 13.8316486,0.563395551 14.687386,1.4191387 C15.5431242,2.27488489 15.9709935,3.39647633 15.9709935,4.51807216 C15.9709935,5.63966689 15.5431249,6.76126595 14.6873802,7.61703573 L13.0471868,9.25712021 C13.1439207,8.37246853 13.0311661,7.46892893 12.7083851,6.62759127 L13.2032069,6.132721 C13.6491141,5.68682469 13.8720681,5.10240652 13.8720681,4.51798811 C13.8720681,3.9335697 13.6491141,3.34915153 13.2032071,2.90325539 C12.7572981,2.4573583 12.1728906,2.23440811 11.5884824,2.23440811 C11.0040744,2.23440811 10.4196675,2.45735821 9.97376208,2.90325274 L7.02774027,5.84929833 C6.58182988,6.29518602 6.35887459,6.87960186 6.35887459,7.46402243 C6.35887459,8.04844534 6.58183147,8.63287249 7.02774417,9.07878124 Z M11.8465703,8.64246054 C11.8465703,9.7640494 11.4187013,10.8856325 10.5629658,11.741368 L7.61694491,14.687471 C6.7611911,15.5432089 5.63959604,15.9710778 4.51800297,15.9710778 C3.39640939,15.9710778 2.27481789,15.5432085 1.4190675,14.6874661 C0.563326322,13.8316862 0.135454919,12.710082 0.135454919,11.5884895 C0.135454919,10.4668966 0.563326236,9.34531505 1.4190719,8.48957814 L3.05931398,6.84935611 C2.96249924,7.73410505 3.07538247,8.63747443 3.39807909,9.47895674 L2.90324657,9.9737596 C2.45734881,10.4196682 2.23439946,11.0040957 2.23439946,11.5885141 C2.23439946,12.1729277 2.45734563,12.7573326 2.90324657,13.2032069 C3.34914298,13.6491142 3.9335633,13.8720681 4.51798378,13.8720681 C5.10240427,13.8720681 5.68682459,13.6491142 6.13272392,13.203204 L9.07878124,10.2571877 C9.52468935,9.81127961 9.74764432,9.22685292 9.74764432,8.64243514 C9.74764432,8.05802201 9.52469253,7.47361794 9.07876143,7.02772436 C8.87385857,6.8227684 8.77141027,6.55418123 8.77141027,6.28560622 C8.77141027,6.01701981 8.87386636,5.7484443 9.07877717,5.5435226 C9.28368998,5.3385989 9.55228058,5.23613459 9.82087243,5.23613459 C10.0894643,5.23613459 10.3580549,5.3385989 10.5629657,5.54352057 C11.4187023,6.39927992 11.8465703,7.52087315 11.8465703,8.64246054 Z" id="Shape"></path>
            </g>
        </g>
    </g>
</svg>