<?xml version="1.0" encoding="UTF-8"?>
<svg width="19px" height="25px" viewBox="0 0 19 25" version="1.1" xmlns="http://www.w3.org/2000/svg" xmlns:xlink="http://www.w3.org/1999/xlink">
    <!-- Generator: Sketch 53.1 (72631) - https://sketchapp.com -->
    <title>money</title>
    <desc>Created with Sketch.</desc>
    <g id="desktop" stroke="none" stroke-width="1" fill="none" fill-rule="evenodd">
        <g id="Artboard" transform="translate(-246.000000, -261.000000)" fill="#23253F" fill-rule="nonzero">
            <g id="money" transform="translate(246.000000, 261.000000)">
                <path d="M18.149125,14.8385417 L14.060599,6.77083333 L4.68559896,6.77083333 L0.597057292,14.8385417 C-0.57024277,17.544846 0.0119228623,20.688129 2.07101562,22.796875 C3.43619895,24.2139087 5.32212521,25.0100632 7.28976562,25 L11.4564323,25 C13.4240727,25.0100632 15.309999,24.2139087 16.6751823,22.796875 C18.7342723,20.6881269 19.316432,17.5448426 18.149125,14.8385417 Z M9.89393229,19.7916667 L9.89393229,20.5729167 C9.89393229,21.0043891 9.54415475,21.3541667 9.11268229,21.3541667 C8.68120983,21.3541667 8.33143229,21.0043891 8.33143229,20.5729167 L8.33143229,19.7916667 L8.07101562,19.7916667 C7.63954316,19.7916667 7.28976562,19.4418891 7.28976562,19.0104167 C7.28976562,18.5789442 7.63954316,18.2291667 8.07101562,18.2291667 L9.60747396,18.2291667 C9.89274816,18.2386007 10.1604842,18.0917931 10.3059144,17.8461909 C10.4513446,17.6005887 10.4513446,17.2952446 10.3059144,17.0496424 C10.1604842,16.8040403 9.89274816,16.6572326 9.60747396,16.6666667 L9.14398437,16.6666667 C7.99733448,16.6837789 7.00723363,15.8674112 6.80550033,14.7385168 C6.60376704,13.6096225 7.24984898,12.5008691 8.33145833,12.1197917 L8.33145833,11.1979167 C8.33145833,10.7664442 8.68123587,10.4166667 9.11270833,10.4166667 C9.54418079,10.4166667 9.89395833,10.7664442 9.89395833,11.1979167 L9.89395833,11.9791667 L10.6752083,11.9791667 C11.1066808,11.9791667 11.4564583,12.3289442 11.4564583,12.7604167 C11.4564583,13.1918891 11.1066808,13.5416667 10.6752083,13.5416667 L9.14395833,13.5416667 C8.85751604,13.5303994 8.58787609,13.6767914 8.44130317,13.9231499 C8.29473024,14.1695084 8.29473024,14.4763249 8.44130317,14.7226834 C8.58787609,14.9690419 8.85751604,15.115434 9.14395833,15.1041667 L9.60744792,15.1041667 C10.8574987,15.0943596 11.8967125,16.0643487 11.9729646,17.3121102 C12.0492167,18.5598717 11.1358492,19.6491852 9.89390625,19.7916667 L9.89393229,19.7916667 Z" id="Shape"></path>
                <path d="M4.68369271,5.72916667 L8.85035938,5.72916667 L7.99185938,1.85734375 C7.88592929,1.38075758 7.46321671,1.0416773 6.975,1.04166667 L4.16285938,1.04166667 C4.00488514,1.04166583 3.85544987,1.11337102 3.75660777,1.2366029 C3.65776566,1.35983477 3.62020259,1.52127067 3.65448958,1.67547917 L4.68369271,5.72916667 Z" id="Path"></path>
                <path d="M11.9772656,5.72916667 L14.0586927,5.72916667 L15.092026,0.614583333 C15.1190737,0.462132404 15.0772071,0.305531047 14.9776913,0.186916256 C14.8781755,0.0683014647 14.7312327,-0.000142754547 14.576401,-1.16170966e-16 L13.0189323,-1.16170966e-16 C12.4463565,0.00725835834 11.9836646,0.469105064 11.9753594,1.04166667 C11.9703171,0.47042233 11.5099268,0.00780223087 10.9387135,-1.16689085e-16 L9.37621354,-1.16689085e-16 C9.22138188,-0.000142754547 9.07443908,0.0683014647 8.97492328,0.186916256 C8.87540748,0.305531047 8.83354086,0.462132404 8.86058854,0.614583333 L9.89202604,5.72916667 L11.9772656,5.72916667 Z" id="Path"></path>
            </g>
        </g>
    </g>
</svg>