<svg xmlns="http://www.w3.org/2000/svg" width="14" height="14" viewBox="0 0 14 14">
    <path fill="#FFF" fill-rule="nonzero" d="M7 0a7 7 0 1 0 0 14A7 7 0 0 0 7 0zm.875 12.171V10.5a.437.437 0 0 0-.438-.438h-.875a.437.437 0 0 0-.437.438v1.671a5.25 5.25 0 0 1-4.3-4.296H3.5a.437.437 0 0 0 .438-.438v-.875a.437.437 0 0 0-.438-.437H1.829a5.25 5.25 0 0 1 4.296-4.3V3.5c0 .241.196.438.438.438h.875a.437.437 0 0 0 .437-.438V1.826a5.25 5.25 0 0 1 4.296 4.299H10.5a.437.437 0 0 0-.438.438v.875c0 .241.196.437.438.437h1.674a5.25 5.25 0 0 1-4.299 4.296z"/>
</svg>
