<?xml version="1.0" encoding="UTF-8"?>
<svg width="19px" height="16px" viewBox="0 0 19 16" version="1.1" xmlns="http://www.w3.org/2000/svg" xmlns:xlink="http://www.w3.org/1999/xlink">
    <!-- Generator: Sketch 53.1 (72631) - https://sketchapp.com -->
    <title>print</title>
    <desc>Created with Sketch.</desc>
    <g id="desktop" stroke="none" stroke-width="1" fill="none" fill-rule="evenodd">
        <g id="Artboard" transform="translate(-244.000000, -850.000000)" fill="#23253F" fill-rule="nonzero">
            <g id="print" transform="translate(244.000000, 850.000000)">
                <path d="M16.7619048,0.380952381 C16.7619048,0.170548571 16.49952,0 16.1758248,0 L2.10988952,0 C1.78619429,0 1.52380952,0.170548571 1.52380952,0.380952381 L1.52380952,1.52380952 L16.7619048,1.52380952 L16.7619048,0.380952381 Z" id="Path"></path>
                <path d="M17.5238095,2.28571429 L0.761904762,2.28571429 C0.341626136,2.2869424 0.00122811887,2.62734042 0,3.04761905 L0,9.12761905 C0.00122811887,9.54789767 0.341626136,9.88829569 0.761904762,9.88952381 L3.04761905,9.88952381 L3.04761905,6.09142857 L15.2380952,6.09142857 L15.2380952,9.88952381 L17.5238095,9.88952381 C17.9440882,9.88829569 18.2844862,9.54789767 18.2857143,9.12761905 L18.2857143,3.04761905 C18.2844862,2.62734042 17.9440882,2.2869424 17.5238095,2.28571429 Z M11.8095238,4.95238095 C11.3887354,4.95238095 11.047619,4.61126457 11.047619,4.19047619 C11.047619,3.76968781 11.3887354,3.42857143 11.8095238,3.42857143 C12.2303122,3.42857143 12.5714286,3.76968781 12.5714286,4.19047619 C12.5701921,4.61075136 12.229799,4.95114451 11.8095238,4.95238095 Z M14.4761905,4.95238095 C14.0554021,4.95238095 13.7142857,4.61126457 13.7142857,4.19047619 C13.7142857,3.76968781 14.0554021,3.42857143 14.4761905,3.42857143 C14.8969789,3.42857143 15.2380952,3.76968781 15.2380952,4.19047619 C15.2368588,4.61075136 14.8964656,4.95114451 14.4761905,4.95238095 Z" id="Shape"></path>
                <path d="M3.80952381,9.88952381 L3.80952381,15.6190476 C3.81015139,15.8291813 3.9803425,15.9993724 4.19047619,16 L14.0952381,16 C14.3053718,15.9993724 14.4755629,15.8291813 14.4761905,15.6190476 L14.4761905,6.85333333 L3.80952381,6.85333333 L3.80952381,9.88952381 Z M12.952381,13.3333333 L5.33333333,13.3333333 C5.12293914,13.3333333 4.95238095,13.1627751 4.95238095,12.952381 C4.95238095,12.7419868 5.12293914,12.5714286 5.33333333,12.5714286 L12.952381,12.5714286 C13.1627751,12.5714286 13.3333333,12.7419868 13.3333333,12.952381 C13.3333333,13.1627751 13.1627751,13.3333333 12.952381,13.3333333 Z M12.952381,11.047619 L5.33333333,11.047619 C5.12293914,11.047619 4.95238095,10.8770609 4.95238095,10.6666667 C4.95238095,10.4562725 5.12293914,10.2857143 5.33333333,10.2857143 L12.952381,10.2857143 C13.1627751,10.2857143 13.3333333,10.4562725 13.3333333,10.6666667 C13.3333333,10.8770609 13.1627751,11.047619 12.952381,11.047619 Z" id="Shape"></path>
            </g>
        </g>
    </g>
</svg>