<?xml version="1.0" encoding="UTF-8"?>
<svg width="24px" height="24px" viewBox="0 0 24 24" version="1.1" xmlns="http://www.w3.org/2000/svg" xmlns:xlink="http://www.w3.org/1999/xlink">
    <!-- Generator: Sketch 53.1 (72631) - https://sketchapp.com -->
    <title>protection</title>
    <desc>Created with Sketch.</desc>
    <g id="desktop" stroke="none" stroke-width="1" fill="none" fill-rule="evenodd">
        <g id="Artboard" transform="translate(-243.000000, -682.000000)" fill="#23253F" fill-rule="nonzero">
            <g id="protection" transform="translate(243.000000, 682.000000)">
                <path d="M22.5,2.5 C21.6736587,2.50501405 21.005014,3.17365867 21,4 L21,12 L18.5968,14.42224 C18.5212433,14.5651374 18.3796228,14.6611535 18.2189072,14.6784443 C18.0581916,14.6957351 17.8993884,14.6320405 17.795165,14.508485 C17.5580883,14.2655771 17.5580883,13.8778929 17.795165,13.634985 L19.823,11.571715 C20.2301038,11.1545817 20.2301038,10.4888483 19.823,10.071715 C19.6291969,9.87305526 19.3634119,9.76103192 19.0858775,9.76103192 C18.8083431,9.76103192 18.5425581,9.87305526 18.348755,10.071715 L14.414915,14.07434 C13.7842679,14.7189252 13.4550547,15.5997976 13.50836,16.5 L13.5,16.5 L13.5,24 L18,24 L18,19.172425 C18.3090025,19.0188324 18.5903234,18.8149418 18.83246,18.56909 L23.56714,13.76123 C23.8450972,13.477802 24.0005539,13.0965027 24,12.699525 L24,4 C23.994986,3.17365867 23.3263413,2.50501405 22.5,2.5 Z" id="Path"></path>
                <path d="M9.585085,14.07434 L5.651245,10.071715 C5.45744194,9.87305526 5.19165686,9.76103192 4.9141225,9.76103192 C4.63658814,9.76103192 4.37080306,9.87305526 4.177,10.071715 C3.76989624,10.4888483 3.76989624,11.1545817 4.177,11.571715 L6.204835,13.635 C6.44191168,13.8779079 6.44191168,14.2655921 6.204835,14.5085 C6.09196995,14.6241724 5.93719754,14.6893977 5.775585,14.6893977 C5.61397246,14.6893977 5.45920005,14.6241724 5.346335,14.5085 L3,12 L3,4 C2.99498595,3.17365867 2.32634133,2.50501405 1.5,2.5 C0.673658673,2.50501405 0.00501404879,3.17365867 -3.15458151e-16,4 L-3.15458151e-16,12.699525 C-0.000553928663,13.0965027 0.154902812,13.477802 0.43286,13.76123 L5.16754,18.56909 C5.40967655,18.8149418 5.69099753,19.0188324 6,19.172425 L6,24 L10.5,24 L10.5,16.5 L10.49164,16.5 C10.5449453,15.5997976 10.2157321,14.7189252 9.585085,14.07434 Z" id="Path"></path>
                <circle id="Oval" cx="12" cy="4.5" r="4.5"></circle>
            </g>
        </g>
    </g>
</svg>