<?xml version="1.0" encoding="UTF-8"?>
<svg width="17px" height="17px" viewBox="0 0 17 17" version="1.1" xmlns="http://www.w3.org/2000/svg" xmlns:xlink="http://www.w3.org/1999/xlink">
    <!-- Generator: Sketch 53.1 (72631) - https://sketchapp.com -->
    <title>search-icon</title>
    <desc>Created with Sketch.</desc>
    <g id="desktop" stroke="none" stroke-width="1" fill="none" fill-rule="evenodd">
        <g id="Artboard" transform="translate(-682.000000, -553.000000)" fill="#ffffff" fill-rule="nonzero">
            <g id="search-icon" transform="translate(690.500000, 561.500000) rotate(-270.000000) translate(-690.500000, -561.500000) translate(682.000000, 553.000000)">
                <path d="M16.5272468,14.5323837 L13.5550868,11.5602237 C15.6923708,8.39507209 15.0747814,4.12406684 12.128428,1.69401154 C9.1820746,-0.736043763 4.87159169,-0.52955026 2.17102072,2.17102072 C-0.52955026,4.87159169 -0.736043763,9.1820746 1.69401154,12.128428 C4.12406684,15.0747814 8.39507209,15.6923708 11.5602237,13.5550868 L14.5322038,16.527067 C15.0830224,17.077981 15.976153,17.0780583 16.527067,16.5272398 C17.077981,15.9764213 17.0780583,15.0832906 16.5272398,14.5323766 L16.5272468,14.5323837 Z M2.83421867,7.41870847 C2.83240237,5.35151324 4.21426478,3.53880656 6.20808291,2.9929232 C8.20190105,2.44703985 10.3144197,3.30302716 11.3658693,5.08284545 C12.4173189,6.86266374 12.1475789,9.12599968 10.70729,10.6088574 C10.6897666,10.6247268 10.6699087,10.6363009 10.6530272,10.6532 C10.6361457,10.6700992 10.6245716,10.6899394 10.6087305,10.7074381 C9.28792496,11.9908586 7.32703464,12.3586881 5.630892,11.6411956 C3.93474935,10.923703 2.83307245,9.26036374 2.83421867,7.41870847 Z" id="Shape"></path>
            </g>
        </g>
    </g>
</svg>