<?xml version="1.0" encoding="UTF-8"?>
<svg width="21px" height="23px" viewBox="0 0 21 23" version="1.1" xmlns="http://www.w3.org/2000/svg" xmlns:xlink="http://www.w3.org/1999/xlink">
    <!-- Generator: Sketch 53.1 (72631) - https://sketchapp.com -->
    <title>shower</title>
    <desc>Created with Sketch.</desc>
    <g id="desktop" stroke="none" stroke-width="1" fill="none" fill-rule="evenodd">
        <g id="Artboard" transform="translate(-245.000000, -822.000000)" fill="#23253F" fill-rule="nonzero">
            <g id="shower" transform="translate(245.000000, 822.000000)">
                <path d="M10.5416667,0 C8.69013976,0.00223892661 7.18973893,1.50263976 7.1875,3.35416667 L7.1875,4.45293896 C3.90685667,5.09465333 1.4375,7.82014854 1.4375,10.0625 L15.8125,10.0625 C15.8125,7.82014854 13.3431433,5.09465333 10.0625,4.45293896 L10.0625,3.35416667 C10.0626771,3.08960361 10.2771036,2.87517708 10.5416667,2.875 L20.125,2.875 L20.125,0 L10.5416667,0 Z" id="Path"></path>
                <path d="M16.2045158,11.0208333 L1.04548417,11.0208333 C0.68318479,10.9892605 0.334051899,11.1647009 0.143167482,11.4742503 C-0.0477169343,11.7837996 -0.0477169343,12.1745337 0.143167482,12.4840831 C0.334051899,12.7936325 0.68318479,12.9690728 1.04548417,12.9375 L16.2045158,12.9375 C16.5668152,12.9690728 16.9159481,12.7936325 17.1068325,12.4840831 C17.2977169,12.1745337 17.2977169,11.7837996 17.1068325,11.4742503 C16.9159481,11.1647009 16.5668152,10.9892605 16.2045158,11.0208333 Z" id="Path"></path>
                <path d="M8.58861688,14.3920775 C8.36517667,14.663305 7.1875,16.1254342 7.1875,16.8196173 C7.21426194,17.5942074 7.8499477,18.2083096 8.625,18.2083096 C9.4000523,18.2083096 10.0357381,17.5942074 10.0625,16.8196173 C10.0625,16.1254342 8.88482333,14.663305 8.66138313,14.3920775 C8.6524074,14.3812427 8.63906972,14.374972 8.625,14.374972 C8.61093028,14.374972 8.5975926,14.3812427 8.58861688,14.3920775 L8.58861688,14.3920775 Z" id="Path"></path>
                <path d="M5.23445021,19.1837442 C5.01101,19.4549717 3.83333333,20.9171008 3.83333333,21.611284 C3.86009527,22.3858741 4.49578104,22.9999763 5.27083333,22.9999763 C6.04588563,22.9999763 6.68157139,22.3858741 6.70833333,21.611284 C6.70833333,20.9171008 5.53065667,19.4549717 5.30721646,19.1837442 C5.29824074,19.1729093 5.28490306,19.1666386 5.27083333,19.1666386 C5.25676361,19.1666386 5.24342593,19.1729093 5.23445021,19.1837442 Z" id="Path"></path>
                <path d="M11.9427835,19.1837442 C11.7193433,19.4549717 10.5416667,20.9171008 10.5416667,21.611284 C10.5684286,22.3858741 11.2041144,22.9999763 11.9791667,22.9999763 C12.754219,22.9999763 13.3899047,22.3858741 13.4166667,21.611284 C13.4166667,20.9171008 12.23899,19.4549717 12.0155498,19.1837442 C12.0065741,19.1729093 11.9932364,19.1666386 11.9791667,19.1666386 C11.9650969,19.1666386 11.9517593,19.1729093 11.9427835,19.1837442 Z" id="Path"></path>
                <path d="M1.88028354,14.3920775 C1.65684333,14.663305 0.479166667,16.1254342 0.479166667,16.8196173 C0.492875774,17.5999519 1.13632375,18.2215634 1.91666667,18.2083333 C2.69700958,18.2215634 3.34045756,17.5999519 3.35416667,16.8196173 C3.35416667,16.1254342 2.17649,14.663305 1.95304979,14.3920775 C1.94407407,14.3812427 1.93073639,14.374972 1.91666667,14.374972 C1.90259694,14.374972 1.88925926,14.3812427 1.88028354,14.3920775 L1.88028354,14.3920775 Z" id="Path"></path>
                <path d="M15.2969502,14.3920775 C15.07351,14.663305 13.8958333,16.1254342 13.8958333,16.8196173 C13.9225953,17.5942074 14.558281,18.2083096 15.3333333,18.2083096 C16.1083856,18.2083096 16.7440714,17.5942074 16.7708333,16.8196173 C16.7708333,16.1254342 15.5931567,14.663305 15.3697165,14.3920775 C15.3607407,14.3812427 15.3474031,14.374972 15.3333333,14.374972 C15.3192636,14.374972 15.3059259,14.3812427 15.2969502,14.3920775 L15.2969502,14.3920775 Z" id="Path"></path>
            </g>
        </g>
    </g>
</svg>