<?xml version="1.0" encoding="UTF-8"?>
<svg width="18px" height="18px" viewBox="0 0 18 18" version="1.1" xmlns="http://www.w3.org/2000/svg" xmlns:xlink="http://www.w3.org/1999/xlink">
    <!-- Generator: Sketch 53.1 (72631) - https://sketchapp.com -->
    <title>target</title>
    <desc>Created with Sketch.</desc>
    <g id="desktop" stroke="none" stroke-width="1" fill="none" fill-rule="evenodd">
        <g id="Artboard" transform="translate(-46.000000, -721.000000)" fill="#23253F" fill-rule="nonzero">
            <g id="target" transform="translate(46.000000, 721.000000)">
                <path d="M9,0 C4.0291872,0 0,4.0297488 0,9 C0,13.9702512 4.0291872,18 9,18 C13.9708128,18 18,13.9702512 18,9 C18,4.0297488 13.9708128,0 9,0 Z M10.125,15.6487512 L10.125,13.5 C10.125,13.1889384 9.8735616,12.9375 9.5625,12.9375 L8.4375,12.9375 C8.1264384,12.9375 7.875,13.1889384 7.875,13.5 L7.875,15.6487512 C5.0506872,15.174 2.8226256,12.9487512 2.3473128,10.125 L4.5,10.125 C4.8110616,10.125 5.0625,9.8735616 5.0625,9.5625 L5.0625,8.4375 C5.0625,8.1264384 4.8110616,7.875 4.5,7.875 L2.35125024,7.875 C2.826,5.0501256 5.0512512,2.8226256 7.875,2.3473128 L7.875,4.5 C7.875,4.8105 8.1264384,5.0625 8.4375,5.0625 L9.5625,5.0625 C9.8735616,5.0625 10.125,4.8105 10.125,4.5 L10.125,2.3473128 C12.9487512,2.8226256 15.174,5.0501256 15.6487512,7.875 L13.5,7.875 C13.1889384,7.875 12.9375,8.1264384 12.9375,8.4375 L12.9375,9.5625 C12.9375,9.8735616 13.1889384,10.125 13.5,10.125 L15.6526872,10.125 C15.1773744,12.9487512 12.9493128,15.174 10.125,15.6487512 Z" id="Shape"></path>
            </g>
        </g>
    </g>
</svg>