<svg xmlns="http://www.w3.org/2000/svg" width="30" height="30" viewBox="0 0 30 30">
    <g fill="none" fill-rule="evenodd">
        <path fill="#FF2C67" d="M0 0h20c5.523 0 10 4.477 10 10v20H20C8.954 30 0 21.046 0 10V0z"/>
        <path fill="#FFF" fill-rule="nonzero" d="M19.77 16.223l-2.358-2.357 2.357-2.358a.833.833 0 1 0-1.179-1.178l-2.357 2.357-2.357-2.356a.833.833 0 0 0-1.178 1.18l2.357 2.355-2.357 2.358a.833.833 0 1 0 1.179 1.178l2.357-2.358 2.358 2.358a.833.833 0 1 0 1.178-1.179z"/>
    </g>
</svg>
