<svg xmlns="http://www.w3.org/2000/svg" width="176" height="42" viewBox="0 0 176 42">
    <path fill="#FFF" fill-rule="evenodd" d="M23.106 36.282c-1.648-.106-3.284.468-5.205 1.218-4.3 1.4-7.7.1-7.7.1s-.7-.5-.3-.5c3.5.2 3-1.3 9.6-1.7a12.32 12.32 0 0 1 4.52.555 12.618 12.618 0 0 1 4.58-.555c6.6.4 6.1 1.9 9.6 1.7.4 0-.3.5-.3.5s-3.4 1.3-7.7-.1c-1.941-.757-3.59-1.335-5.267-1.215 3.131 1.269 4.867 3.415 4.867 3.415l-.6.3c-1.95-2.171-3.585-3.223-5.16-3.582-1.586.359-3.247 1.41-5.24 3.582l-.6-.3s1.738-2.15 4.905-3.418zm2.295-7.882h-2.8c-.5 0-.4-.3-.4-.8v-2.5c0-.5.1-.7-.2-.7-1 0-1.3-.1-1.3-1v-9.5c0-2.6 1.8-2.2 2.3-3.1.7-1.2-1.4-1.2-.6-4 .2-.6.7-1 1.6-1 .9 0 1.4.4 1.6 1 .8 2.7-1.3 2.7-.6 4 .5 1 2.3.5 2.3 3.1v9.5c0 .9-.3 1-1.3 1-.3 0-.2.2-.2.7v2.5c0 .5.1.8-.4.8zM17.1 7.9c-.9 1-2.4 3.3-1.4 5.2 2 .8 1.8-6.2 4.2-6.1 1.2 1.1-.4 4.4-.8 5.8-.6 1.8-1.1 5.5-2.2 7.3-1 1.5-.2 6.2-.5 7.8-.8.8-3 .2-3.9.1 0-1.9-.2-3.3-.5-6.3 0-.6-.7-9.8-.2-10.9 1.1-2.3 6.8-6.7 7.6-7.6.7-.8 3.1-3.2 4-3.2.7.5.3 1.5.1 1.9-1 2.4-5.1 4.7-6.4 6zm14 0c-1.4-1.3-5.4-3.6-6.4-6-.2-.4-.6-1.4.1-1.9 1 0 3.4 2.4 4.1 3.2.8.9 6.6 5.3 7.6 7.6.5 1.1-.1 10.3-.2 10.9-.3 3-.5 4.4-.5 6.3-1 .1-3.2.7-4-.1-.3-1.6.4-6.3-.5-7.8-1.1-1.8-1.6-5.5-2.2-7.3-.5-1.4-2.1-4.7-.9-5.8 2.5-.1 2.3 6.9 4.3 6.1 1-1.9-.5-4.2-1.4-5.2zM8.7 4.8c-.5.5-1.7.8-2.4 1.9-.3-.6.5-2 1.4-2.8.7-.6 2-1.5 2.4-1.6.4.7-.7 1.7-1.4 2.5zM7.2 8.5c-.9.8-1.8 1.1-3 2.6-.5-1.8-.4-3.3-.2-4.4.4-1.4 1.1-2.9 2.3-3.4-.2.8-.6 1.9-.7 3.3-.5 2-.8 2.1-.7 2.3.1 0 .8-1.1 1.6-1.9 1-1 2.2-1.2 2.9-1.7-.1.5-.8 1.8-2.2 3.2zm-4.3 8.4c-1.2-2.1-1.3-3.6-1.4-5.4.1-1.2.7-4.1 1.6-4.5-.3 2.6.4 2.8.1 5 0 .1-.3 2.3-.3 2.5.4-.1 0-2 4.1-4.9-.9 1.6-.5 2-2.1 4.1-1.8 1.7-2.1 3.6-2 3.2zm1.7 1.9c-.9 1.3-.7 1.9-.9 2.5-2.1-1.2-4.4-6-3.5-8.4.5 1.8 1.3 2.2 1.8 3.7.9 2.3.8 2.9 1.4 3.5-.1-1.2.3-2.6.7-3.6.6-.9 1-2 1.4-2.4.4 1.7 0 3.1-.9 4.7zm1.8 4.1c0 1.8-.3 2.6-.5 4C2.3 25.7.5 21.6.5 19.6c1.1 2.5 2.7 2.4 4.8 5.9.2-1.3-.4-.3-.4-2.8.1-2.6.6-2.7.7-4.3.6.7.8 3.6.8 4.5zm3 5.2c.3 1.4.4 2.9.6 4.1-2-.8-2.6-.2-5-1.7-1.1-.6-3.1-3.1-3-4.9C4.4 28.3 4.8 28 6 29c1.1.9 1.9 2.2 2.7 2 .1-.7-1.8-2.3-1.5-6.8.5.5 1.8 2.5 2.2 3.9zm4.1 3.4c.6.9.5 1.3 2.1 3.2-.4.2-2.7.8-4.2.8-1 0-4.6-1-5.8-3.4 2.1 1.1 2.1.8 4.9 1.4 2 .4 3.4 1.1 3.9 1-.1-.3-1.7-.9-2.7-2.2-1.1-1.4-.8-3-1.7-4.2.5-.2 3 2.7 3.5 3.4zM39.2 4.8c-.6-.8-1.7-1.8-1.4-2.5.4.1 1.7 1 2.4 1.6.9.8 1.7 2.2 1.4 2.8-.7-1.1-1.9-1.4-2.4-1.9zm1.6 3.7c-1.4-1.4-2.2-2.7-2.2-3.2.8.5 2 .7 2.9 1.7.8.8 1.5 1.9 1.6 1.9.1-.2-.2-.3-.7-2.3-.1-1.4-.4-2.5-.7-3.3 1.2.5 1.9 2 2.3 3.4.2 1.1.3 2.6-.2 4.4-1.2-1.5-2.2-1.8-3-2.6zm4.2 8.4c.1.4-.1-1.5-2-3.2-1.7-2.1-1.2-2.5-2.1-4.1 4.1 2.9 3.8 4.8 4.1 4.9 0-.2-.3-2.4-.3-2.5-.3-2.2.4-2.4.2-5 .8.4 1.4 3.3 1.5 4.5-.1 1.8-.2 3.3-1.4 5.4zm-1.6 1.9c-1-1.6-1.3-3-.9-4.7.4.4.9 1.5 1.4 2.4.4 1 .8 2.4.7 3.6.6-.6.4-1.2 1.4-3.5.5-1.5 1.3-1.9 1.8-3.7.9 2.4-1.4 7.2-3.5 8.4-.2-.6-.1-1.2-.9-2.5zm-1.9 4.1c0-.9.2-3.8.8-4.5.1 1.6.6 1.7.7 4.3 0 2.5-.6 1.5-.4 2.8 2.1-3.5 3.7-3.4 4.8-5.9 0 2-1.9 6.1-5.4 7.3-.1-1.4-.5-2.2-.5-4zm-3 5.2c.4-1.4 1.7-3.4 2.2-3.9.2 4.5-1.7 6.1-1.6 6.8.8.2 1.7-1.1 2.8-2 1.1-1 1.6-.7 4-3.4.1 1.8-1.9 4.3-3 4.9-2.5 1.5-3 .9-5 1.7.2-1.2.3-2.7.6-4.1zm-4 3.4c.5-.7 2.9-3.6 3.7-3.4-1 1.2-.7 2.8-1.8 4.2-1 1.3-2.6 1.9-2.7 2.2.5.1 1.9-.6 3.9-1 2.8-.6 2.8-.3 4.9-1.4-1.2 2.4-4.8 3.4-5.8 3.4-1.6 0-3.9-.6-4.3-.8 1.6-1.9 1.5-2.3 2.1-3.2zm24.7 1.9h-2.3v-1.5h6.2v1.5h-2.3v6.2h-1.6v-6.2zm4.5-1.5h1.5v2.9c.4-.6 1-.9 1.6-.9 1.6 0 2 .9 2 2.3v3.4h-1.5v-3.1c0-.9-.3-1.4-1-1.4-.8 0-1.2.5-1.2 1.6v2.9h-1.5v-7.7h.1zm7.3 5.3c0 1 .5 1.4 1.4 1.4.6 0 1.1-.4 1.2-.7h1.3c-.4 1.3-1.3 1.9-2.6 1.9-1.7 0-2.8-1.2-2.8-2.9s1.1-2.9 2.8-2.9c1.9 0 2.8 1.6 2.7 3.3h-4v-.1zm2.5-1c-.1-.8-.5-1.2-1.2-1.2-1 0-1.2.7-1.3 1.2h2.5zm11.2.5c0 2.1-1.2 3.1-3.3 3.1-2.1 0-3.2-1-3.2-3.1V32h1.7v4.7c0 .8.2 1.7 1.6 1.7 1.2 0 1.6-.5 1.6-1.7V32h1.7v4.7h-.1zm1.1-4.8h1.7l3.2 5.2v-5.2h1.6v7.7h-1.7l-3.2-5.1v5.1h-1.6v-7.7zm11.6 1.4v2.2h1.8c.8 0 1.2-.3 1.2-1.1s-.5-1.1-1.2-1.1h-1.8zm-1.7 6.3h.2V32h4.1c1.3 0 2.2.9 2.2 2.1 0 .9-.4 1.6-1.2 1.9.8.2 1 1 1.1 1.8 0 .5 0 1.4.3 1.8h-1.7c-.2-.5-.2-1.2-.3-1.8-.1-.8-.5-1.2-1.3-1.2h-1.7v3h-1.7zm8.6-3.4h2.5c-.1-.8-.5-1.2-1.2-1.2-1 0-1.3.8-1.3 1.2zm4 1v-.1h-4c.1 1 .6 1.4 1.4 1.4.6 0 1.1-.4 1.2-.7h1.3c-.4 1.3-1.3 1.9-2.6 1.9-1.7 0-2.8-1.2-2.8-2.9 0-1.6 1.1-2.9 2.8-2.9 1.9 0 2.8 1.6 2.7 3.3zm1-2.1h-.9v-1h.9v-.4c0-1 .6-1.7 1.8-1.7h.8v1.1h-.6c-.4 0-.6.2-.6.6v.3h1v1h-1v4.5h-1.5v-4.4h.1zm8.3 4.5h-1.4v-.8c-.4.6-1 .9-1.7.9-1.6 0-2-.9-2-2.3V34h1.5v3.1c0 .9.3 1.4 1 1.4.8 0 1.2-.5 1.2-1.6V34h1.5v5.6h-.1zm3.4-1.3c.9 0 1.3-.8 1.3-1.6 0-.9-.3-1.7-1.3-1.7-.8 0-1.2.8-1.2 1.6s.3 1.7 1.2 1.7zm2.8-4.2h.2v5.1c0 .9-.4 2.4-2.9 2.4-1.1 0-2.3-.5-2.4-1.8h1.5c.1.6.6.8 1.1.8.8 0 1.2-.6 1.2-1.4v-.7c-.4.6-1 .9-1.7.9-1.7 0-2.4-1.3-2.4-2.8 0-1.4.9-2.7 2.4-2.7.7 0 1.2.3 1.6.9v-.7h1.4zm2.3 2.1h2.5c-.1-.8-.5-1.2-1.2-1.2-1 0-1.3.8-1.3 1.2zm3.9 1v-.1h-4c.1 1 .6 1.4 1.4 1.4.6 0 1.1-.4 1.2-.7h1.3c-.4 1.3-1.3 1.9-2.6 1.9-1.7 0-2.8-1.2-2.8-2.9 0-1.6 1.1-2.9 2.8-2.9 1.9 0 2.8 1.6 2.7 3.3zm2-1h2.5c-.1-.8-.5-1.2-1.2-1.2-1 0-1.3.8-1.3 1.2zm4 1v-.1h-4c.1 1 .6 1.4 1.4 1.4.6 0 1.1-.4 1.2-.7h1.3c-.4 1.3-1.3 1.9-2.6 1.9-1.7 0-2.8-1.2-2.8-2.9 0-1.6 1.1-2.9 2.8-2.9 1.9 0 2.8 1.6 2.7 3.3zm6.1-3.4l-1 2.8h2l-1-2.8zm-3.7 5.8l2.9-7.6h1.7l2.9 7.6h-1.7l-.6-1.7h-2.9l-.6 1.7h-1.7zm10.3-1.3c.9 0 1.3-.8 1.3-1.6 0-.9-.3-1.7-1.3-1.7-.8 0-1.2.8-1.2 1.6s.3 1.7 1.2 1.7zm2.7-4.2h.2v5.1c0 .9-.4 2.4-2.9 2.4-1.1 0-2.3-.5-2.4-1.8h1.5c.1.6.6.8 1.1.8.8 0 1.2-.6 1.2-1.4v-.7c-.4.6-1 .9-1.7.9-1.7 0-2.4-1.3-2.4-2.8 0-1.4.8-2.7 2.4-2.7.7 0 1.2.3 1.6.9v-.7h1.4zm2.3 2.1h2.5c-.1-.8-.5-1.2-1.2-1.2-1 0-1.3.8-1.3 1.2zm4 1v-.1h-4c.1 1 .6 1.4 1.4 1.4.6 0 1.1-.4 1.2-.7h1.3c-.4 1.3-1.3 1.9-2.6 1.9-1.7 0-2.8-1.2-2.8-2.9 0-1.6 1.1-2.9 2.8-2.9 1.9 0 2.8 1.6 2.7 3.3zm.7-3.1h1.4v.8c.4-.6 1-.9 1.7-.9 1.6 0 2 .9 2 2.3v3.4H162v-3.2c0-.9-.3-1.4-1-1.4-.8 0-1.2.5-1.2 1.6v2.9h-1.4v-5.5zm9.8 1.9c-.1-.6-.5-1-1.1-1-1 0-1.3 1-1.3 1.8s.3 1.7 1.3 1.7c.7 0 1.1-.4 1.2-1.1h1.5c-.2 1.5-1.2 2.3-2.7 2.3-1.7 0-2.8-1.2-2.8-2.8 0-1.7 1-3 2.8-3 1.3 0 2.5.7 2.6 2.1h-1.5zm4.9 4.3c-.3.9-.9 1.2-1.9 1.2-.3 0-.6 0-.9-.1v-1.3c.3 0 .6.1.9.1.5-.1.7-.6.5-1l-1.9-5.2h1.6l1.3 3.8 1.2-3.8h1.6l-2.4 6.3zM77.5 19.6c0 6.3-3.4 9.3-10.3 9.3s-10.3-3-10.3-9.3V5.7h7V18c0 2.3 0 5.2 3.4 5.2 3.3 0 3.3-2.9 3.3-5.2V5.7h7v13.9h-.1zm4.2-13.9h7.1l6.6 12.1h.1V5.7h6.5v22.6h-6.7l-7-12.3v12.3h-6.6V5.7zm24.6 0h7v7.9h6.5V5.7h6.9v22.6h-6.9v-8.9h-6.5v8.9h-7V5.7zm38.3 8.4c-.1-.8-.8-3.3-3.6-3.3-3.3 0-4.3 3.2-4.3 6.2s1 6.2 4.3 6.2c2.3 0 3.3-1.6 3.7-3.8h6.8c0 4.6-3.7 9.4-10.3 9.4-7.3 0-11.5-5.2-11.5-11.8 0-7.1 4.5-11.8 11.5-11.8 6.2 0 9.6 3.3 10.2 9h-6.8v-.1zm16.7-3v4.4h3.6c1.3 0 3.1-.2 3.1-2.2 0-1.4-.7-2.2-3.4-2.2h-3.3zm-7 17.2V5.7h13.3c4 0 7.4 2.2 7.4 6.5 0 2.4-1.1 4.8-3.4 5.7 1.9.7 3 2.8 3.3 5.6.1 1.1.2 3.8.8 4.8h-7c-.4-1.2-.5-2.3-.6-3.5-.2-2.2-.3-4.4-3.1-4.4h-3.7v7.9h-7z"/>
</svg>
