<svg width="362" height="362" viewBox="0 0 362 362" fill="none" xmlns="http://www.w3.org/2000/svg">
<path d="M181 361C280.411 361 361 280.411 361 181C361 81.5887 280.411 1 181 1C81.5887 1 1 81.5887 1 181C1 280.411 81.5887 361 181 361Z" fill="#FF6363" stroke="white" stroke-width="2" stroke-miterlimit="10"/>
<path d="M181 321.377C258.528 321.377 321.377 258.528 321.377 181C321.377 103.472 258.528 40.623 181 40.623C103.472 40.623 40.6229 103.472 40.6229 181C40.6229 258.528 103.472 321.377 181 321.377Z" fill="#FF6363"/>
<path d="M63.6634 103.724C63.2803 104.272 62.7878 104.6 62.131 104.764C61.4743 104.928 60.927 104.819 60.4345 104.49L44.0708 92.5598C43.5783 92.2314 43.3046 91.7389 43.1952 91.1916C43.0857 90.6443 43.2499 90.0971 43.5783 89.6045L49.5436 81.4501C50.2551 80.4649 51.1854 79.7535 52.3347 79.2609C53.484 78.7684 54.688 78.6042 56.0015 78.7684C57.315 78.9326 58.5737 79.4251 59.723 80.3008C60.4345 80.848 61.0365 81.5048 61.4743 82.271C61.9121 83.0372 62.2405 83.9128 62.4594 84.7885C62.6236 85.6641 62.6783 86.5397 62.5141 87.4154L61.9121 86.9228C62.5688 86.5945 63.2256 86.4303 63.8823 86.3208C64.539 86.2661 65.1411 86.2661 65.7431 86.4303C66.3451 86.5397 66.8923 86.7587 67.4396 87.1418C67.9869 87.4154 68.4247 87.6343 68.8078 87.9079C69.1909 88.1269 69.5193 88.291 69.8477 88.4005C70.176 88.51 70.4497 88.4552 70.778 88.3458C71.3253 88.1269 71.8726 88.1269 72.4199 88.3458C72.9671 88.5647 73.2955 89.0025 73.405 89.5498C73.5144 89.9329 73.4597 90.316 73.2955 90.6991C73.1313 91.0822 72.9124 91.4105 72.584 91.6842C72.2557 91.9578 71.982 92.1767 71.7084 92.2862C71.2706 92.4504 70.778 92.5598 70.176 92.6145C69.574 92.6693 68.8626 92.5598 68.0964 92.2862C67.3302 92.0125 66.4545 91.52 65.4694 90.8085C65.1411 90.5896 64.8127 90.4254 64.4296 90.316C64.1012 90.2065 63.7181 90.2065 63.3898 90.2612C63.0067 90.316 62.6783 90.4802 62.3499 90.6991C62.0216 90.9727 61.6932 91.3011 61.3648 91.7389L57.2055 97.4306L56.8771 96.5549L63.0067 101.043C63.4992 101.426 63.8276 101.809 63.937 102.356C64.1012 102.739 63.9918 103.232 63.6634 103.724ZM54.3049 95.1868L59.121 88.5647C59.3399 88.2363 59.4494 87.7985 59.3946 87.2512C59.3399 86.7039 59.0663 86.1019 58.6832 85.5546C58.3001 84.9526 57.8075 84.4054 57.1508 83.9675C56.3299 83.3655 55.4542 83.0919 54.5786 83.0919C53.7029 83.1466 53.0462 83.4203 52.7178 83.9128L47.9565 90.4802L47.2998 89.4951L55.29 95.3509L54.3049 95.1868Z" fill="white"/>
<path d="M60.325 68.4248L68.5889 60.1062C69.0267 59.6683 69.5193 59.4494 70.0666 59.4494C70.6138 59.4494 71.1064 59.6136 71.5442 60.0514C71.982 60.4893 72.1462 60.9271 72.0915 61.4744C72.0368 62.0216 71.8179 62.5142 71.38 62.952L64.4843 69.9025L64.2654 69.2457L69.1362 74.0618H68.7531L74.5543 68.2606C74.9921 67.8228 75.4846 67.6039 76.0319 67.6039C76.5792 67.6039 77.0717 67.7681 77.5096 68.2059C77.9474 68.6437 78.1116 69.0815 78.1116 69.6288C78.1116 70.1761 77.8379 70.6686 77.4001 71.1065L71.7084 76.8529L71.6537 76.5245L76.6886 81.5048H76.2508L83.1465 74.5543C83.5844 74.1165 84.0769 73.8976 84.6789 73.8976C85.2809 73.8976 85.7187 74.0618 86.1018 74.4449C86.5397 74.828 86.7038 75.3205 86.7038 75.8678C86.7038 76.4151 86.4302 76.9076 86.0471 77.3454L77.7832 85.6641C77.3454 86.1019 76.8528 86.3208 76.2508 86.3208C75.6488 86.3208 75.1563 86.1019 74.7184 85.6641L60.325 71.3801C59.8872 70.9423 59.6683 70.4497 59.6683 69.8477C59.6683 69.3552 59.8872 68.8626 60.325 68.4248Z" fill="white"/>
<path d="M77.236 52.3895C77.5096 52.1706 77.838 52.0612 78.2211 52.0064C78.6042 51.9517 78.9873 51.9517 79.3157 52.0612L93.8733 57.7529L92.3956 58.738L91.9031 43.0311C91.9031 42.2649 92.1767 41.6629 92.724 41.2798C93.1618 40.9514 93.7091 40.842 94.3111 40.8967C94.9131 40.9514 95.4057 41.225 95.734 41.7723L107.555 58.3001C107.884 58.7927 108.048 59.34 107.938 59.8873C107.829 60.4345 107.555 60.9271 107.008 61.3102C106.461 61.6933 105.913 61.8575 105.366 61.748C104.819 61.6386 104.326 61.3649 103.998 60.8724L94.3658 47.4093L95.6793 46.862L96.2266 59.8873C96.2266 60.2156 96.1171 60.544 95.9529 60.8724C95.7887 61.2007 95.5698 61.4744 95.2962 61.6386C95.0773 61.8575 94.7489 61.9669 94.4205 61.9669C94.0375 62.0216 93.7091 61.9669 93.3807 61.8575L81.7784 57.1509L81.45 55.1259L91.7936 69.5741C92.122 70.0666 92.2862 70.6139 92.2314 71.1612C92.1767 71.7085 91.9031 72.1463 91.4105 72.5294C90.918 72.8578 90.4254 72.9672 89.8781 72.8578C89.3309 72.7483 88.893 72.4199 88.5099 71.9274L76.6887 55.3996C76.3603 54.907 76.2509 54.3597 76.3604 53.8125C76.4698 53.2105 76.7434 52.7179 77.236 52.3895Z" fill="white"/>
<path d="M128.078 37.3393C128.79 38.9265 129.227 40.5136 129.337 42.1554C129.446 43.7972 129.227 45.3296 128.79 46.8073C128.297 48.2849 127.531 49.6531 126.491 50.8571C125.451 52.0611 124.138 53.0462 122.551 53.7577C120.964 54.4692 119.376 54.8523 117.789 54.8523C116.202 54.8523 114.67 54.5786 113.247 53.9766C111.769 53.3746 110.511 52.499 109.306 51.3497C108.157 50.2004 107.172 48.8322 106.461 47.2451C105.749 45.658 105.311 44.0709 105.202 42.429C105.092 40.7872 105.311 39.2548 105.749 37.7224C106.242 36.2448 107.008 34.8766 108.048 33.6726C109.088 32.4686 110.401 31.5382 111.988 30.772C113.575 30.0605 115.162 29.6774 116.749 29.6774C118.337 29.6774 119.869 29.9511 121.347 30.5531C122.824 31.1551 124.083 32.0307 125.287 33.18C126.382 34.384 127.312 35.7522 128.078 37.3393ZM123.919 39.2548C123.262 37.8319 122.386 36.6826 121.292 35.7522C120.197 34.8766 118.993 34.2746 117.68 34.0557C116.366 33.8368 115.053 34.0009 113.739 34.603C112.426 35.205 111.441 36.0806 110.729 37.2299C110.018 38.3792 109.69 39.6379 109.635 41.0608C109.58 42.4838 109.909 43.9067 110.565 45.3296C111.222 46.7525 112.098 47.9018 113.192 48.8322C114.287 49.7626 115.491 50.3099 116.804 50.5288C118.118 50.7477 119.431 50.5835 120.745 49.9815C122.058 49.3795 123.043 48.5038 123.755 47.3545C124.411 46.2053 124.794 44.9465 124.849 43.5236C124.904 42.1007 124.576 40.6777 123.919 39.2548Z" fill="white"/>
<path d="M131.362 27.762C130.76 27.9262 130.212 27.8714 129.775 27.5978C129.282 27.3242 128.954 26.9411 128.79 26.339C128.625 25.737 128.68 25.2445 129.008 24.7519C129.337 24.3141 129.775 23.9858 130.322 23.8216L145.372 19.7717C145.974 19.6075 146.521 19.6622 147.014 19.9359C147.506 20.2095 147.835 20.5926 147.999 21.1946C148.163 21.7966 148.108 22.2892 147.78 22.7817C147.452 23.2196 147.014 23.5479 146.467 23.7121L131.362 27.762ZM144.223 45.5485C143.566 45.7127 143.019 45.658 142.526 45.3843C141.979 45.1107 141.651 44.6729 141.486 44.0709L136.178 24.4236L140.556 23.2196L145.865 42.8669C146.029 43.4689 145.974 44.0162 145.646 44.5087C145.372 45.0013 144.88 45.3844 144.223 45.5485Z" fill="white"/>
<path d="M155.88 17.9109L167.537 16.488C168.139 16.4333 168.686 16.5427 169.124 16.8711C169.562 17.1995 169.835 17.692 169.89 18.294C169.945 18.896 169.835 19.3886 169.452 19.7717C169.069 20.1548 168.577 20.4284 167.975 20.4831L158.233 21.6872L158.452 21.0304L159.273 27.8167L158.945 27.5978L167.099 26.6127C167.701 26.5579 168.248 26.6674 168.686 26.9958C169.124 27.3241 169.398 27.8167 169.452 28.4187C169.507 29.0207 169.398 29.5132 169.014 29.8963C168.631 30.3342 168.194 30.5531 167.537 30.6078L159.492 31.5929L159.656 31.2645L160.532 38.3244L160.203 38.0508L169.945 36.8468C170.547 36.792 171.094 36.9015 171.532 37.2846C171.97 37.613 172.243 38.1055 172.298 38.5981C172.353 39.2001 172.243 39.6926 171.86 40.0757C171.477 40.5135 171.039 40.7325 170.437 40.7872L158.78 42.2101C158.178 42.2648 157.631 42.1554 157.193 41.7723C156.755 41.3892 156.482 40.9514 156.427 40.3494L153.964 20.2095C153.91 19.6075 154.019 19.0602 154.402 18.6224C154.785 18.294 155.278 18.0204 155.88 17.9109Z" fill="white"/>
<path d="M193.314 41.4987C191.672 41.3345 190.249 41.0061 188.935 40.5136C187.677 39.9663 186.473 39.1454 185.378 38.0508C185.104 37.7772 184.886 37.4488 184.776 37.1204C184.667 36.7921 184.612 36.4637 184.612 36.1353C184.667 35.5881 184.886 35.1502 185.323 34.7671C185.761 34.3841 186.254 34.2199 186.801 34.2746C187.239 34.3293 187.622 34.4935 187.95 34.8219C188.771 35.6428 189.592 36.2448 190.468 36.6826C191.289 37.1204 192.383 37.3941 193.642 37.5035C194.518 37.5583 195.284 37.5035 196.05 37.2846C196.816 37.0657 197.418 36.7921 197.911 36.3543C198.403 35.9164 198.677 35.4239 198.732 34.8766C198.786 34.1651 198.622 33.5631 198.239 33.0159C197.856 32.4686 197.254 32.0308 196.433 31.5929C195.612 31.1551 194.518 30.8267 193.204 30.4984C191.945 30.2247 190.851 29.8416 189.975 29.3491C189.045 28.8565 188.279 28.3093 187.731 27.6525C187.129 26.9958 186.692 26.2843 186.473 25.4087C186.199 24.5878 186.144 23.6574 186.199 22.6723C186.309 21.1399 186.856 19.8812 187.731 18.8961C188.607 17.911 189.756 17.1448 191.125 16.7069C192.493 16.2691 193.97 16.1049 195.612 16.2691C197.145 16.3786 198.513 16.7617 199.772 17.309C201.03 17.8562 202.015 18.5677 202.782 19.3339C203.384 19.9359 203.712 20.5926 203.657 21.2494C203.603 21.7419 203.384 22.2345 202.946 22.6176C202.508 23.0007 202.015 23.1648 201.468 23.1101C201.14 23.0554 200.811 22.9459 200.538 22.727C200.209 22.3439 199.717 22.0156 199.115 21.6872C198.513 21.3588 197.856 21.0304 197.199 20.7568C196.543 20.4832 195.886 20.319 195.284 20.2643C194.299 20.1548 193.423 20.2095 192.712 20.4284C192 20.6474 191.453 20.921 191.07 21.3588C190.687 21.7966 190.468 22.2892 190.413 22.8365C190.358 23.5479 190.523 24.1499 190.906 24.6425C191.289 25.135 191.836 25.5729 192.547 25.9012C193.259 26.2296 194.189 26.558 195.229 26.8316C196.597 27.2147 197.801 27.5978 198.841 28.0903C199.881 28.5282 200.702 29.0754 201.359 29.6775C202.015 30.2795 202.453 30.9909 202.727 31.8666C203.001 32.7422 203.11 33.7273 203.001 34.9313C202.891 36.4637 202.344 37.7225 201.413 38.7623C200.483 39.8021 199.279 40.5136 197.911 41.0061C196.378 41.4987 194.901 41.6629 193.314 41.4987Z" fill="white"/>
<path d="M213.071 19.1149L224.509 21.7419C225.111 21.9061 225.549 22.1797 225.877 22.6723C226.205 23.1648 226.26 23.6574 226.151 24.2594C226.041 24.8066 225.713 25.2445 225.22 25.5181C224.728 25.7917 224.18 25.8465 223.633 25.6823L214.056 23.4932L214.493 23.0006L212.961 29.6774L212.742 29.3491L220.732 31.2098C221.334 31.3193 221.772 31.6476 222.101 32.1402C222.429 32.6327 222.484 33.1253 222.374 33.7273C222.265 34.2746 221.936 34.7124 221.444 34.986C220.951 35.2597 220.404 35.3144 219.857 35.1502L211.976 33.3442L212.195 33.1253L210.608 40.021L210.389 39.6379L219.912 41.827C220.514 41.9365 220.951 42.2648 221.28 42.7574C221.608 43.2499 221.663 43.7425 221.553 44.2898C221.444 44.8371 221.116 45.2749 220.623 45.5485C220.13 45.8222 219.583 45.8769 219.036 45.7674L207.598 43.1405C206.996 43.031 206.558 42.7027 206.23 42.2101C205.901 41.7176 205.846 41.1703 205.956 40.5683L210.498 20.8115C210.608 20.2095 210.936 19.7717 211.429 19.4433C211.921 19.0602 212.469 19.0055 213.071 19.1149Z" fill="white"/>
<path d="M226.479 48.0113C225.877 47.7924 225.384 47.3546 225.056 46.8073C224.727 46.26 224.673 45.658 224.892 45.1107L232.389 26.2844C232.608 25.7371 232.991 25.2992 233.539 25.0803C234.086 24.8614 234.633 24.8614 235.181 25.0803L244.539 28.8018C245.688 29.2397 246.619 29.9511 247.385 30.9909C248.151 31.976 248.589 33.1253 248.808 34.4388C249.027 35.7523 248.808 37.0657 248.26 38.4339C247.932 39.2549 247.44 40.021 246.783 40.6231C246.126 41.2798 245.415 41.7723 244.594 42.2102C243.773 42.5933 242.952 42.8669 242.076 42.9216L242.405 42.2102C242.897 42.7574 243.226 43.3595 243.444 43.9615C243.663 44.5635 243.773 45.1655 243.828 45.7675C243.828 46.3695 243.773 46.9715 243.609 47.5735C243.499 48.1755 243.335 48.6681 243.225 49.0511C243.116 49.489 243.007 49.8721 243.007 50.1457C243.007 50.4741 243.116 50.7477 243.335 51.0214C243.718 51.5139 243.828 52.0065 243.773 52.6085C243.663 53.2105 243.39 53.5936 242.842 53.8672C242.514 54.0314 242.131 54.0861 241.693 54.0314C241.31 53.9767 240.927 53.8125 240.599 53.5936C240.27 53.3746 239.997 53.1557 239.832 52.9368C239.559 52.5537 239.285 52.1159 239.121 51.5139C238.902 50.9666 238.847 50.2552 238.902 49.4342C238.957 48.6133 239.23 47.683 239.668 46.5337C239.832 46.1506 239.887 45.8222 239.887 45.4391C239.887 45.056 239.778 44.7276 239.668 44.3993C239.504 44.0709 239.285 43.7973 238.957 43.5236C238.628 43.25 238.245 43.0311 237.698 42.8122L231.131 40.1852L231.897 39.638L229.051 46.6979C228.832 47.2451 228.504 47.683 228.011 47.9566C227.519 48.1755 227.026 48.2302 226.479 48.0113ZM232.389 36.8468L239.997 39.8569C240.38 40.0211 240.817 39.9663 241.365 39.7474C241.857 39.5285 242.35 39.1454 242.842 38.6528C243.335 38.1056 243.718 37.5036 243.992 36.7374C244.375 35.807 244.43 34.8766 244.156 34.0557C243.882 33.2348 243.499 32.6875 242.897 32.4139L235.345 29.4038L236.166 28.5282L232.499 37.7225L232.389 36.8468Z" fill="white"/>
<path d="M273.654 44.2351C274.147 44.5634 274.475 44.9465 274.639 45.4938C274.804 46.0411 274.749 46.5884 274.42 47.0809C274.256 47.3546 274.037 47.5735 273.764 47.7924L255.868 60.6534C255.485 60.9818 255.047 61.0913 254.609 61.0913C254.171 61.0913 253.788 60.9818 253.46 60.7629C253.131 60.544 252.912 60.2703 252.694 59.8873C252.529 59.5042 252.475 59.1211 252.529 58.6285L255.649 36.7374C255.649 36.5732 255.704 36.409 255.758 36.2995C255.813 36.1353 255.868 36.0259 255.977 35.9164C256.306 35.3144 256.798 35.0408 257.4 34.9861C258.002 34.9313 258.495 35.0408 258.878 35.2597C259.644 35.6975 259.972 36.4637 259.808 37.4488L257.017 56.8772L255.977 56.2752L271.356 44.454C272.122 43.7972 272.943 43.7973 273.654 44.2351Z" fill="white"/>
<path d="M269.769 69.5194C269.385 70.0119 268.893 70.2856 268.291 70.3403C267.689 70.395 267.142 70.2308 266.704 69.9025C266.156 69.5194 265.883 69.0268 265.828 68.4795C265.773 67.9323 265.938 67.385 266.266 66.8924L278.634 50.8024C279.018 50.3099 279.455 50.0362 280.057 49.9815C280.659 49.9268 281.207 50.091 281.699 50.4741C282.137 50.8024 282.411 51.295 282.52 51.897C282.63 52.499 282.465 53.0463 282.082 53.4841L269.769 69.5194Z" fill="white"/>
<path d="M300.854 69.0268C301.073 69.6835 301.018 70.2855 300.635 70.7781C300.252 71.3253 299.705 71.6537 299.048 71.7084C298.555 71.8179 298.063 71.7084 297.734 71.3801C297.351 71.1064 297.078 70.6686 296.859 70.1761C296.64 69.6288 296.366 69.0268 295.983 68.5342C295.655 67.9869 295.217 67.4944 294.724 67.0566C293.794 66.1809 292.864 65.5242 291.879 65.1411C290.893 64.758 289.854 64.5391 288.869 64.5938C287.829 64.6485 286.844 64.9222 285.913 65.36C284.928 65.8526 284.052 66.5093 283.232 67.3849C282.246 68.4248 281.535 69.4646 281.097 70.5044C280.659 71.5442 280.495 72.5841 280.495 73.5692C280.55 74.5543 280.769 75.5394 281.261 76.4698C281.754 77.4001 282.411 78.2758 283.232 79.042C283.669 79.4798 284.162 79.8629 284.709 80.246C285.256 80.5744 285.858 80.848 286.46 81.0669C286.953 81.2311 287.391 81.5047 287.665 81.8878C287.938 82.2709 288.102 82.7087 288.048 83.256C287.993 84.0222 287.665 84.5695 287.172 84.8979C286.625 85.281 286.077 85.3357 285.475 85.1168C284.819 84.8979 284.217 84.6789 283.615 84.3506C283.013 84.0222 282.411 83.6938 281.863 83.3107C281.316 82.9276 280.824 82.4898 280.331 82.052C279.127 80.9027 278.142 79.5893 277.43 78.1663C276.719 76.7434 276.281 75.211 276.172 73.6786C276.062 72.0915 276.281 70.5044 276.883 68.9173C277.485 67.3302 278.525 65.7431 279.948 64.2654C281.207 62.952 282.575 61.9669 284.052 61.3101C285.53 60.6534 287.117 60.325 288.704 60.2703C290.291 60.2703 291.879 60.5439 293.411 61.2007C294.943 61.8027 296.366 62.7878 297.68 64.0465C298.391 64.758 299.048 65.5242 299.595 66.3998C300.088 67.2207 300.526 68.0964 300.854 69.0268Z" fill="white"/>
<path d="M308.024 75.5941L315.248 84.8979C315.631 85.3904 315.795 85.883 315.74 86.485C315.685 87.0323 315.412 87.5248 314.919 87.9079C314.481 88.291 313.934 88.4005 313.442 88.291C312.894 88.1815 312.456 87.9079 312.073 87.4154L306.053 79.644L306.71 79.5345L301.292 83.7486L301.347 83.3655L306.382 89.8234C306.765 90.3159 306.929 90.8085 306.874 91.4105C306.82 91.9578 306.546 92.4503 306.053 92.7787C305.616 93.1618 305.068 93.2712 304.576 93.1618C304.028 93.0523 303.591 92.7787 303.207 92.2861L298.227 85.883L298.556 85.8283L292.973 90.1517L293.028 89.7139L299.048 97.4306C299.431 97.9231 299.541 98.4157 299.486 99.0177C299.431 99.5649 299.158 100.057 298.72 100.386C298.227 100.769 297.735 100.878 297.187 100.769C296.64 100.66 296.202 100.386 295.819 99.8933L288.595 90.6443C288.212 90.1517 288.048 89.6592 288.157 89.0572C288.212 88.5099 288.486 88.0174 288.978 87.6343L304.959 75.211C305.451 74.8279 305.944 74.6638 306.546 74.7732C307.148 74.8827 307.64 75.1563 308.024 75.5941Z" fill="white"/>
<path d="M161.243 189.483H144.332C141.979 189.483 140.118 187.567 140.118 185.269V168.358C140.118 166.005 142.034 164.144 144.332 164.144H161.243C163.597 164.144 165.457 166.059 165.457 168.358V178.154C168.413 174.761 172.627 172.572 177.333 172.572H213.563L215.314 170.547C215.862 169.836 216.245 168.96 216.245 168.03C216.19 166.99 215.752 165.95 214.986 165.238L199.334 151.392V125.999C199.334 123.645 197.418 121.784 195.12 121.784H186.637C184.284 121.784 182.423 123.7 182.423 125.999V136.397L158.999 115.655C157.522 114.341 154.731 113.302 152.815 113.302C150.9 113.302 148.054 114.341 146.631 115.655L90.5896 165.293C89.8234 166.059 89.3856 167.044 89.3309 168.084C89.3856 169.015 89.714 169.836 90.2612 170.547L95.2415 176.184C96.0077 176.95 96.9928 177.388 98.0873 177.443C98.963 177.388 99.8386 177.06 100.55 176.512L106.297 171.477V214.931C106.297 219.583 110.073 223.414 114.779 223.414H161.353V189.483H161.243ZM255.813 231.842H245.962V189.483C245.962 184.831 242.569 181 238.355 181H177.333C173.119 181 169.726 184.776 169.726 189.483V231.842H159.875C158.343 231.842 157.029 233.101 157.029 234.688V237.534C157.029 243.773 162.064 248.808 168.303 248.808H247.385C253.624 248.753 258.659 243.718 258.659 237.534V234.688C258.604 233.101 257.345 231.842 255.813 231.842ZM233.21 231.842H182.423V193.752H233.21V231.842Z" fill="white"/>
<path d="M298.391 258.331C298.774 257.783 299.267 257.455 299.924 257.291C300.58 257.126 301.128 257.181 301.62 257.564L317.984 269.495C318.476 269.878 318.75 270.316 318.86 270.863C318.969 271.41 318.805 271.958 318.476 272.45L312.511 280.605C311.8 281.59 310.869 282.301 309.72 282.794C308.571 283.286 307.367 283.451 306.053 283.286C304.74 283.122 303.481 282.63 302.332 281.754C301.62 281.207 301.018 280.55 300.58 279.784C300.088 279.018 299.814 278.142 299.595 277.266C299.431 276.391 299.376 275.515 299.541 274.639L300.143 275.132C299.486 275.46 298.829 275.625 298.172 275.734C297.516 275.789 296.914 275.789 296.312 275.625C295.71 275.515 295.162 275.296 294.615 274.913C294.068 274.639 293.63 274.42 293.247 274.147C292.864 273.928 292.535 273.764 292.207 273.654C291.879 273.545 291.605 273.6 291.277 273.709C290.729 273.928 290.182 273.928 289.635 273.709C289.088 273.49 288.759 273.052 288.65 272.505C288.54 272.122 288.595 271.739 288.759 271.356C288.923 270.973 289.142 270.644 289.471 270.371C289.799 270.097 290.073 269.878 290.346 269.769C290.784 269.604 291.277 269.495 291.879 269.44C292.481 269.386 293.192 269.495 293.958 269.769C294.724 270.042 295.6 270.535 296.585 271.246C296.914 271.465 297.242 271.629 297.625 271.739C297.953 271.794 298.337 271.848 298.665 271.794C298.993 271.739 299.376 271.575 299.705 271.356C300.033 271.137 300.361 270.754 300.69 270.316L304.849 264.569L305.178 265.445L299.048 260.957C298.555 260.574 298.227 260.191 298.118 259.644C297.953 259.261 298.063 258.768 298.391 258.331ZM307.75 266.813L302.934 273.435C302.715 273.764 302.605 274.202 302.66 274.749C302.715 275.296 302.988 275.843 303.372 276.445C303.755 277.047 304.247 277.595 304.904 278.033C305.725 278.635 306.6 278.908 307.476 278.908C308.352 278.853 309.008 278.58 309.337 278.087L314.098 271.52L314.755 272.505L306.765 266.649L307.75 266.813Z" fill="white"/>
<path d="M301.675 293.575L293.411 301.894C292.973 302.332 292.481 302.551 291.933 302.551C291.386 302.551 290.894 302.387 290.456 301.949C290.018 301.511 289.854 301.073 289.908 300.526C289.963 299.978 290.182 299.486 290.565 299.048L297.461 292.098L297.68 292.754L292.809 287.938H293.192L287.391 293.739C286.953 294.177 286.461 294.396 285.913 294.396C285.366 294.396 284.874 294.232 284.436 293.794C283.998 293.356 283.834 292.919 283.834 292.371C283.888 291.824 284.107 291.331 284.545 290.894L290.237 285.147L290.346 285.476L285.311 280.495H285.749L278.853 287.446C278.416 287.884 277.923 288.103 277.321 288.103C276.774 288.103 276.281 287.938 275.898 287.555C275.46 287.117 275.296 286.68 275.296 286.078C275.296 285.53 275.57 285.038 275.953 284.6L284.217 276.281C284.655 275.843 285.147 275.625 285.749 275.625C286.351 275.625 286.844 275.843 287.282 276.281L301.675 290.565C302.113 291.003 302.332 291.496 302.332 292.098C302.332 292.645 302.113 293.137 301.675 293.575Z" fill="white"/>
<path d="M284.764 309.665C284.49 309.884 284.162 309.994 283.779 310.048C283.396 310.103 283.013 310.103 282.739 309.994L268.182 304.302L269.659 303.317L270.152 319.024C270.152 319.79 269.878 320.392 269.331 320.775C268.893 321.103 268.346 321.213 267.744 321.158C267.142 321.103 266.649 320.83 266.321 320.282L254.5 303.755C254.171 303.262 254.007 302.715 254.116 302.168C254.226 301.62 254.5 301.128 255.047 300.745C255.594 300.361 256.141 300.197 256.689 300.307C257.236 300.416 257.729 300.69 258.057 301.182L267.689 314.645L266.376 315.193L265.828 302.168C265.828 301.839 265.938 301.511 266.102 301.182C266.266 300.854 266.485 300.58 266.759 300.416C266.978 300.197 267.306 300.088 267.634 300.088C268.017 300.033 268.346 300.088 268.674 300.197L280.276 304.904L280.605 306.929L270.261 292.481C269.933 291.988 269.769 291.441 269.823 290.894C269.878 290.346 270.152 289.908 270.644 289.525C271.137 289.197 271.629 289.088 272.177 289.197C272.724 289.306 273.162 289.635 273.545 290.127L285.366 306.655C285.694 307.148 285.804 307.695 285.694 308.242C285.53 308.844 285.257 309.337 284.764 309.665Z" fill="white"/>
<path d="M233.977 324.715C233.265 323.128 232.827 321.541 232.718 319.899C232.608 318.258 232.827 316.725 233.265 315.193C233.758 313.715 234.524 312.347 235.564 311.143C236.604 309.939 237.917 308.954 239.504 308.242C241.091 307.531 242.678 307.148 244.265 307.148C245.853 307.148 247.385 307.421 248.808 308.023C250.285 308.625 251.544 309.501 252.748 310.65C253.898 311.8 254.883 313.168 255.594 314.755C256.306 316.342 256.743 317.929 256.853 319.571C256.962 321.213 256.743 322.745 256.306 324.278C255.813 325.755 255.047 327.123 254.007 328.328C252.967 329.532 251.654 330.517 250.067 331.228C248.479 331.94 246.892 332.323 245.305 332.323C243.718 332.323 242.186 332.049 240.708 331.447C239.285 330.845 237.972 329.969 236.768 328.82C235.618 327.671 234.688 326.303 233.977 324.715ZM238.081 322.8C238.738 324.223 239.614 325.372 240.708 326.248C241.803 327.123 243.007 327.725 244.32 327.944C245.634 328.163 246.947 327.999 248.261 327.397C249.574 326.795 250.559 325.919 251.271 324.77C251.927 323.621 252.31 322.362 252.365 320.939C252.42 319.516 252.091 318.093 251.435 316.67C250.778 315.248 249.902 314.098 248.808 313.168C247.713 312.237 246.509 311.69 245.196 311.471C243.882 311.252 242.569 311.417 241.255 312.019C239.942 312.621 238.957 313.496 238.245 314.646C237.534 315.795 237.206 317.054 237.151 318.476C237.096 319.899 237.424 321.377 238.081 322.8Z" fill="white"/>
<path d="M230.638 334.293C231.24 334.129 231.788 334.183 232.28 334.457C232.773 334.731 233.101 335.114 233.265 335.716C233.429 336.318 233.375 336.81 233.046 337.303C232.718 337.741 232.28 338.069 231.733 338.233L216.683 342.283C216.081 342.447 215.533 342.392 215.041 342.119C214.548 341.845 214.22 341.462 214.056 340.86C213.892 340.258 213.946 339.766 214.275 339.273C214.603 338.835 215.041 338.507 215.588 338.343L230.638 334.293ZM217.777 316.506C218.434 316.342 218.981 316.397 219.474 316.67C219.966 316.944 220.349 317.382 220.514 317.984L225.822 337.631L221.444 338.835L216.135 319.188C215.971 318.586 216.026 318.039 216.354 317.546C216.683 316.999 217.12 316.67 217.777 316.506Z" fill="white"/>
<path d="M206.12 344.089L194.463 345.512C193.861 345.567 193.314 345.457 192.876 345.129C192.438 344.801 192.164 344.308 192.11 343.706C192.055 343.104 192.164 342.611 192.548 342.228C192.931 341.845 193.368 341.572 193.97 341.517L203.712 340.313L203.493 340.97L202.672 334.183L203.001 334.402L194.846 335.387C194.244 335.442 193.697 335.333 193.259 335.004C192.821 334.676 192.548 334.183 192.493 333.581C192.438 332.979 192.548 332.487 192.931 332.104C193.314 331.666 193.752 331.447 194.354 331.392L202.399 330.407L202.234 330.681L201.359 323.676L201.687 323.949L191.946 325.153C191.344 325.208 190.796 325.098 190.358 324.715C189.921 324.332 189.647 323.894 189.592 323.402C189.538 322.8 189.647 322.307 190.03 321.924C190.413 321.486 190.851 321.267 191.453 321.158L203.11 319.735C203.712 319.68 204.259 319.79 204.697 320.173C205.135 320.501 205.409 320.994 205.463 321.596L207.926 341.736C207.981 342.338 207.871 342.885 207.488 343.323C207.215 343.761 206.722 344.034 206.12 344.089Z" fill="white"/>
<path d="M168.686 320.501C170.328 320.666 171.751 320.994 173.01 321.487C174.269 322.034 175.473 322.855 176.567 323.949C176.841 324.223 177.06 324.551 177.169 324.88C177.279 325.208 177.388 325.536 177.333 325.865C177.279 326.412 177.06 326.85 176.622 327.233C176.184 327.616 175.691 327.78 175.144 327.726C174.706 327.671 174.323 327.507 173.995 327.178C173.174 326.357 172.353 325.755 171.477 325.317C170.656 324.88 169.562 324.606 168.303 324.497C167.428 324.442 166.661 324.497 165.895 324.715C165.129 324.934 164.527 325.208 164.034 325.646C163.542 326.084 163.268 326.576 163.268 327.124C163.213 327.835 163.378 328.437 163.761 328.984C164.144 329.532 164.746 329.969 165.567 330.407C166.388 330.845 167.482 331.173 168.796 331.502C170.054 331.775 171.094 332.159 172.025 332.651C172.955 333.144 173.721 333.691 174.269 334.348C174.871 335.004 175.308 335.716 175.527 336.591C175.801 337.412 175.856 338.343 175.801 339.328C175.691 340.86 175.144 342.119 174.323 343.104C173.448 344.089 172.298 344.855 170.93 345.293C169.562 345.676 168.084 345.84 166.497 345.676C164.965 345.567 163.597 345.184 162.338 344.636C161.079 344.089 160.094 343.378 159.328 342.612C158.671 342.01 158.397 341.353 158.452 340.696C158.507 340.203 158.726 339.711 159.164 339.328C159.601 338.945 160.094 338.781 160.641 338.835C160.97 338.89 161.298 338.999 161.572 339.218C161.9 339.601 162.393 339.93 162.995 340.258C163.597 340.587 164.253 340.915 164.91 341.189C165.567 341.462 166.224 341.626 166.826 341.681C167.811 341.791 168.686 341.736 169.398 341.517C170.109 341.298 170.656 341.024 171.04 340.587C171.423 340.149 171.642 339.656 171.696 339.109C171.751 338.397 171.587 337.795 171.258 337.303C170.875 336.81 170.328 336.427 169.562 336.044C168.796 335.716 167.92 335.387 166.88 335.114C165.512 334.731 164.308 334.348 163.268 333.855C162.228 333.417 161.407 332.87 160.751 332.268C160.094 331.666 159.656 330.954 159.383 330.079C159.109 329.203 158.999 328.218 159.109 327.014C159.218 325.482 159.766 324.223 160.696 323.183C161.626 322.143 162.776 321.432 164.199 320.939C165.622 320.556 167.154 320.392 168.686 320.501Z" fill="white"/>
<path d="M148.929 342.94L137.491 340.313C136.889 340.203 136.452 339.875 136.123 339.382C135.795 338.89 135.74 338.397 135.85 337.795C135.959 337.248 136.287 336.81 136.78 336.537C137.272 336.263 137.82 336.208 138.367 336.372L147.944 338.562L147.507 339.054L149.039 332.377L149.258 332.706L141.268 330.845C140.666 330.681 140.228 330.407 139.899 329.915C139.571 329.422 139.516 328.929 139.626 328.327C139.735 327.78 140.064 327.342 140.556 327.069C141.049 326.795 141.596 326.74 142.143 326.905L150.024 328.711L149.805 328.929L151.392 322.034L151.611 322.417L142.088 320.228C141.486 320.118 141.049 319.79 140.72 319.297C140.392 318.805 140.337 318.312 140.447 317.765C140.556 317.218 140.884 316.78 141.377 316.506C141.87 316.233 142.417 316.178 142.964 316.287L154.402 318.914C155.004 319.024 155.442 319.352 155.77 319.845C156.099 320.337 156.154 320.884 156.044 321.486L151.502 341.298C151.392 341.9 151.064 342.338 150.571 342.666C150.079 342.995 149.531 343.049 148.929 342.94Z" fill="white"/>
<path d="M135.521 314.043C136.123 314.262 136.616 314.7 136.944 315.248C137.272 315.795 137.327 316.397 137.108 316.944L129.61 335.77C129.392 336.318 129.008 336.701 128.461 336.974C127.914 337.193 127.367 337.193 126.819 336.974L117.461 333.253C116.312 332.815 115.381 332.104 114.615 331.064C113.849 330.079 113.411 328.929 113.192 327.616C113.028 326.303 113.192 324.989 113.739 323.621C114.068 322.8 114.56 322.034 115.217 321.432C115.874 320.775 116.585 320.282 117.406 319.845C118.227 319.462 119.048 319.188 119.924 319.133L119.595 319.845C119.103 319.297 118.774 318.695 118.555 318.093C118.337 317.491 118.227 316.889 118.172 316.287C118.172 315.685 118.227 315.083 118.391 314.481C118.501 313.879 118.665 313.387 118.774 313.004C118.884 312.566 118.993 312.183 118.993 311.909C118.993 311.581 118.884 311.307 118.665 311.033C118.282 310.541 118.172 310.048 118.227 309.446C118.337 308.844 118.61 308.461 119.157 308.188C119.486 308.023 119.869 307.969 120.307 308.023C120.69 308.078 121.073 308.242 121.401 308.461C121.73 308.68 122.003 308.899 122.222 309.118C122.496 309.501 122.769 309.939 122.934 310.541C123.153 311.088 123.207 311.8 123.153 312.621C123.098 313.441 122.824 314.372 122.386 315.521C122.222 315.904 122.167 316.233 122.167 316.616C122.167 316.999 122.222 317.327 122.386 317.656C122.551 317.984 122.769 318.258 123.098 318.531C123.426 318.805 123.809 319.024 124.357 319.243L130.924 321.87L130.158 322.417L133.004 315.357C133.222 314.81 133.551 314.372 134.043 314.098C134.481 313.825 134.974 313.825 135.521 314.043ZM129.61 325.208L122.003 322.198C121.62 322.034 121.182 322.088 120.635 322.253C120.143 322.472 119.65 322.855 119.157 323.347C118.665 323.894 118.282 324.496 118.008 325.263C117.625 326.248 117.57 327.123 117.844 327.944C118.118 328.765 118.501 329.313 119.103 329.531L126.6 332.541L125.779 333.417L129.446 324.223L129.61 325.208Z" fill="white"/>
<path d="M88.3456 317.82C87.8531 317.546 87.5247 317.108 87.3605 316.561C87.1963 316.014 87.2511 315.466 87.5794 314.974C87.7436 314.7 87.9625 314.481 88.2362 314.262L106.132 301.401C106.57 301.128 107.008 300.964 107.446 300.964C107.883 300.964 108.267 301.073 108.595 301.292C108.923 301.511 109.142 301.784 109.306 302.168C109.525 302.551 109.58 302.934 109.525 303.426L106.406 325.317C106.406 325.482 106.351 325.646 106.296 325.755C106.242 325.865 106.187 326.029 106.077 326.138C105.749 326.74 105.257 327.014 104.655 327.069C104.053 327.123 103.56 327.014 103.177 326.795C102.411 326.357 102.082 325.591 102.247 324.606L104.983 305.232L106.023 305.834L90.6442 317.656C89.878 318.203 89.1118 318.258 88.3456 317.82Z" fill="white"/>
<path d="M92.2314 292.535C92.6145 292.043 93.1071 291.769 93.7091 291.715C94.3111 291.66 94.8584 291.824 95.2962 292.152C95.7887 292.535 96.1171 293.028 96.1718 293.575C96.2265 294.123 96.0624 294.67 95.734 295.162L83.3655 311.252C82.9824 311.745 82.4899 312.019 81.9426 312.073C81.3406 312.128 80.7933 311.964 80.3007 311.581C79.8629 311.252 79.5893 310.76 79.4798 310.158C79.3704 309.556 79.5345 309.009 79.9176 308.571L92.2314 292.535Z" fill="white"/>
<path d="M61.2006 292.973C60.9817 292.317 61.0364 291.715 61.4195 291.167C61.8026 290.62 62.3499 290.292 63.0066 290.237C63.4992 290.127 63.937 290.237 64.3201 290.565C64.7032 290.839 64.9768 291.277 65.1957 291.769C65.4146 292.371 65.6883 292.919 66.0714 293.411C66.4545 293.904 66.8376 294.451 67.3301 294.889C68.2605 295.764 69.1909 296.421 70.176 296.804C71.1611 297.187 72.2009 297.406 73.186 297.351C74.2258 297.297 75.2109 297.023 76.1413 296.585C77.0717 296.093 78.002 295.436 78.823 294.56C79.8081 293.521 80.5195 292.481 80.9573 291.441C81.3952 290.401 81.5594 289.361 81.5594 288.376C81.5046 287.391 81.2857 286.406 80.7932 285.476C80.3006 284.545 79.6439 283.669 78.823 282.903C78.3851 282.465 77.8926 282.082 77.3453 281.699C76.798 281.371 76.2507 281.097 75.594 280.878C75.1015 280.714 74.6636 280.441 74.39 280.057C74.1164 279.674 73.9522 279.237 74.0069 278.689C74.0616 277.923 74.39 277.376 74.8825 277.047C75.3751 276.664 75.9771 276.61 76.5791 276.829C77.2358 277.047 77.8379 277.266 78.4399 277.595C79.0419 277.923 79.6439 278.251 80.1912 278.635C80.7384 279.018 81.231 279.455 81.7235 279.893C82.9275 281.043 83.9127 282.356 84.6241 283.779C85.3356 285.202 85.7734 286.734 85.8829 288.267C85.9923 289.854 85.7734 291.441 85.1714 293.028C84.5694 294.615 83.5296 296.202 82.1066 297.68C80.8479 298.993 79.4797 299.978 78.002 300.635C76.5244 301.292 74.9373 301.62 73.3502 301.675C71.7631 301.675 70.176 301.401 68.6436 300.745C67.1112 300.143 65.6883 299.157 64.3748 297.899C63.6633 297.187 63.0066 296.421 62.4593 295.545C61.912 294.779 61.4742 293.904 61.2006 292.973Z" fill="white"/>
<path d="M53.9766 286.406L46.7525 277.157C46.3694 276.664 46.2053 276.172 46.26 275.57C46.3147 275.023 46.5884 274.53 47.0809 274.202C47.5187 273.819 48.066 273.709 48.5586 273.819C49.1058 273.928 49.5437 274.202 49.9268 274.694L55.9468 282.466L55.2901 282.575L60.7081 278.361L60.6534 278.744L55.6185 272.286C55.2354 271.794 55.0712 271.301 55.1259 270.699C55.1806 270.152 55.4543 269.659 55.9468 269.276C56.3846 268.893 56.9319 268.784 57.4245 268.893C57.9718 269.002 58.4096 269.276 58.7927 269.769L63.7729 276.172L63.4445 276.227L69.0268 271.903L68.9721 272.341L62.952 264.624C62.5689 264.132 62.4594 263.639 62.5142 263.037C62.5689 262.49 62.8425 261.997 63.2804 261.669C63.7182 261.286 64.2655 261.176 64.8127 261.286C65.36 261.395 65.8526 261.669 66.1809 262.161L73.405 271.465C73.7881 271.958 73.9523 272.45 73.8428 273.052C73.7881 273.6 73.5145 274.092 73.0219 274.475L57.0414 286.898C56.5488 287.282 56.0563 287.446 55.4543 287.336C54.8523 287.172 54.3597 286.898 53.9766 286.406Z" fill="white"/>
</svg>
