<svg id="Layer_1" data-name="Layer 1" xmlns="http://www.w3.org/2000/svg" viewBox="0 0 175.75 41.59"><defs><style>.cls-1{fill:#007ac2;fill-rule:evenodd;}</style></defs><title>logo</title><path class="cls-1" d="M243,403.89c.49,0,.43-.28.43-.8v-2.54c0-.53,0-.7.25-.7,1,0,1.33-.09,1.33-1v-9.45c0-2.57-1.82-2.15-2.33-3.09-.73-1.27,1.36-1.27.6-4a1.81,1.81,0,0,0-3.25,0c-.76,2.76,1.33,2.76.6,4-.51.94-2.33.52-2.33,3.09v9.45c0,.94.28,1,1.33,1,.3,0,.25.17.25.7v2.54c0,.52-.06.8.43.8Z" transform="translate(-217.5 -375.58)"/><path class="cls-1" d="M234.68,383.38c-.93,1-2.4,3.3-1.44,5.22,1.95.75,1.8-6.18,4.23-6.06,1.2,1.12-.36,4.38-.84,5.82-.6,1.77-1.08,5.49-2.22,7.29-1,1.5-.24,6.21-.54,7.83-.81.81-3,.24-3.93.09,0-1.86-.24-3.33-.54-6.3,0-.6-.66-9.78-.15-10.89,1.05-2.31,6.78-6.71,7.56-7.55s3.12-3.25,4.05-3.25c.66.46.27,1.51.12,1.92-.93,2.31-4.95,4.6-6.3,5.88Z" transform="translate(-217.5 -375.58)"/><path class="cls-1" d="M248.66,383.38c.89,1,2.37,3.3,1.44,5.22-2,.75-1.83-6.18-4.26-6.06-1.17,1.12.39,4.38.87,5.82.6,1.77,1.08,5.49,2.22,7.29.93,1.5.23,6.21.51,7.83.83.81,3,.24,3.95.09,0-1.86.22-3.33.51-6.3.06-.6.69-9.78.18-10.89-1-2.31-6.77-6.71-7.55-7.55s-3.12-3.25-4.05-3.25c-.69.46-.27,1.51-.12,1.92.93,2.31,4.95,4.6,6.3,5.88Z" transform="translate(-217.5 -375.58)"/><path class="cls-1" d="M226.35,380.28c-.51.47-1.66.8-2.44,1.86-.3-.57.48-1.95,1.41-2.77a12,12,0,0,1,2.44-1.59c.3.69-.78,1.74-1.41,2.5Z" transform="translate(-217.5 -375.58)"/><path class="cls-1" d="M224.76,384a17.74,17.74,0,0,0-3,2.62,8.87,8.87,0,0,1-.15-4.39c.42-1.38,1.11-2.92,2.28-3.4a13,13,0,0,0-.72,3.34c-.51,2-.81,2.07-.69,2.34.12,0,.78-1.05,1.59-1.86,1-1,2.17-1.18,2.95-1.74a10.21,10.21,0,0,1-2.25,3.09Z" transform="translate(-217.5 -375.58)"/><path class="cls-1" d="M220.52,392.36a10.93,10.93,0,0,1-1.39-5.41c.07-1.24.66-4.09,1.57-4.51-.27,2.58.42,2.82.15,5,0,.12-.3,2.34-.3,2.46.36-.06,0-2,4.14-4.9-.9,1.56-.48,2.05-2.1,4.12a7.48,7.48,0,0,0-2.07,3.28Z" transform="translate(-217.5 -375.58)"/><path class="cls-1" d="M222.17,394.34a5.81,5.81,0,0,0-.93,2.49c-2.08-1.2-4.42-6-3.55-8.35.54,1.8,1.29,2.19,1.83,3.69.94,2.26.79,2.95,1.39,3.46a8.33,8.33,0,0,1,.66-3.58,22.71,22.71,0,0,1,1.44-2.4,5.72,5.72,0,0,1-.84,4.69Z" transform="translate(-217.5 -375.58)"/><path class="cls-1" d="M224,398.43a26,26,0,0,1-.48,4c-3.58-1.17-5.44-5.26-5.44-7.27,1.09,2.47,2.67,2.43,4.75,5.92.18-1.32-.36-.33-.42-2.82s.6-2.71.69-4.33c.66.72.9,3.61.9,4.51Z" transform="translate(-217.5 -375.58)"/><path class="cls-1" d="M227,403.63c.27,1.35.39,2.94.6,4.11-2-.75-2.56-.18-5-1.71-1.11-.6-3.1-3.12-3-4.93,2.4,2.68,2.82,2.38,4,3.37s2,2.16,2.74,2c.05-.72-1.78-2.28-1.54-6.79a12.51,12.51,0,0,1,2.17,4Z" transform="translate(-217.5 -375.58)"/><path class="cls-1" d="M231.06,407a16.24,16.24,0,0,0,2.11,3.16,17.65,17.65,0,0,1-4.24.84c-1,0-4.63-1-5.83-3.43,2.07,1.12,2.11.85,4.87,1.45a38.33,38.33,0,0,0,3.94,1c-.12-.27-1.66-.9-2.71-2.23s-.81-3-1.74-4.17c.63-.18,3.09,2.7,3.6,3.36Z" transform="translate(-217.5 -375.58)"/><path class="cls-1" d="M256.82,380.28c.48.47,1.65.8,2.4,1.86.33-.57-.48-1.95-1.41-2.77a10.3,10.3,0,0,0-2.43-1.59c-.3.69.78,1.74,1.44,2.5Z" transform="translate(-217.5 -375.58)"/><path class="cls-1" d="M258.41,384a19.46,19.46,0,0,1,3,2.62,8.87,8.87,0,0,0,.15-4.39c-.39-1.38-1.11-2.92-2.29-3.4a11.46,11.46,0,0,1,.73,3.34c.51,2,.81,2.07.69,2.34-.12,0-.78-1.05-1.59-1.86s-2.14-1.18-2.95-1.74a10.56,10.56,0,0,0,2.28,3.09Z" transform="translate(-217.5 -375.58)"/><path class="cls-1" d="M262.62,392.36A10.6,10.6,0,0,0,264,387c-.06-1.24-.66-4.09-1.53-4.51.24,2.58-.45,2.82-.15,5,0,.12.27,2.34.27,2.46-.33-.06,0-2-4.12-4.9.88,1.56.45,2.05,2.08,4.12a7.07,7.07,0,0,1,2.07,3.28Z" transform="translate(-217.5 -375.58)"/><path class="cls-1" d="M261,394.34a6.07,6.07,0,0,1,.9,2.49c2.07-1.2,4.45-6,3.55-8.35-.51,1.8-1.3,2.19-1.81,3.69-1,2.26-.81,2.95-1.38,3.46a8.5,8.5,0,0,0-.69-3.58,18.53,18.53,0,0,0-1.44-2.4,5.74,5.74,0,0,0,.87,4.69Z" transform="translate(-217.5 -375.58)"/><path class="cls-1" d="M259.1,398.43a24.32,24.32,0,0,0,.52,4c3.54-1.17,5.44-5.26,5.44-7.27-1.12,2.47-2.68,2.43-4.78,5.92-.18-1.32.36-.33.42-2.82s-.6-2.71-.69-4.33c-.66.72-.91,3.61-.91,4.51Z" transform="translate(-217.5 -375.58)"/><path class="cls-1" d="M256.13,403.63c-.27,1.35-.36,2.94-.57,4.11,2-.75,2.52-.18,5-1.71,1.11-.6,3.12-3.12,3-4.93-2.4,2.68-2.85,2.38-4,3.37s-2,2.16-2.77,2c-.06-.72,1.78-2.28,1.56-6.79a11.94,11.94,0,0,0-2.19,4Z" transform="translate(-217.5 -375.58)"/><path class="cls-1" d="M252.07,407a13.21,13.21,0,0,1-2.1,3.16,18,18,0,0,0,4.27.84c1,0,4.59-1,5.79-3.43-2.07,1.12-2.1.85-4.86,1.45-2,.45-3.37,1.08-3.94,1,.12-.27,1.68-.9,2.71-2.23s.81-3,1.77-4.17c-.66-.18-3.13,2.7-3.64,3.36Z" transform="translate(-217.5 -375.58)"/><path class="cls-1" d="M236.45,415.47l-.61-.3a13.2,13.2,0,0,1,10.37-4.3c6.55.36,6.1,1.89,9.62,1.65.39,0-.3.48-.3.48a12.05,12.05,0,0,1-7.66-.12c-4.21-1.44-7-2.31-11.42,2.59Z" transform="translate(-217.5 -375.58)"/><path class="cls-1" d="M246.81,415.47l.61-.3a13.11,13.11,0,0,0-10.35-4.3c-6.58.36-6.13,1.89-9.64,1.65-.39,0,.3.48.3.48a12.05,12.05,0,0,0,7.66-.12c4.24-1.44,7-2.31,11.42,2.59Z" transform="translate(-217.5 -375.58)"/><polygon class="cls-1" points="59.27 33.27 56.98 33.27 56.98 31.86 63.23 31.86 63.23 33.27 60.94 33.27 60.94 39.49 59.27 39.49 59.27 33.27 59.27 33.27"/><path class="cls-1" d="M281.25,407.45h1.52v2.87h0a2,2,0,0,1,1.62-.92c1.61,0,2,.91,2,2.28v3.4h-1.52V412c0-.91-.27-1.36-1-1.36s-1.18.46-1.18,1.58v2.9h-1.52v-7.63Z" transform="translate(-217.5 -375.58)"/><path class="cls-1" d="M288.61,412.68c0,1,.51,1.4,1.35,1.4a1.26,1.26,0,0,0,1.2-.71h1.33a2.48,2.48,0,0,1-2.58,1.86,2.7,2.7,0,0,1-2.82-2.91,2.77,2.77,0,0,1,2.82-2.92c1.88,0,2.79,1.58,2.68,3.28Zm2.46-1c-.14-.77-.47-1.17-1.2-1.17a1.2,1.2,0,0,0-1.26,1.17Z" transform="translate(-217.5 -375.58)"/><path class="cls-1" d="M302.32,412.19c0,2.06-1.21,3.07-3.25,3.07s-3.25-1-3.25-3.07v-4.74h1.67v4.74c0,.84.22,1.66,1.58,1.66,1.19,0,1.58-.53,1.58-1.66v-4.74h1.67v4.74Z" transform="translate(-217.5 -375.58)"/><polygon class="cls-1" points="85.94 31.86 87.61 31.86 90.79 36.98 90.81 36.98 90.81 31.86 92.39 31.86 92.39 39.49 90.71 39.49 87.53 34.39 87.51 34.39 87.51 39.49 85.94 39.49 85.94 31.86 85.94 31.86"/><path class="cls-1" d="M315,408.75h1.84c.75,0,1.16.32,1.16,1.06s-.41,1.09-1.16,1.09H315v-2.15Zm-1.67,6.33H315v-3h1.68c.85,0,1.15.35,1.27,1.15a8.93,8.93,0,0,0,.27,1.83h1.68a4.15,4.15,0,0,1-.32-1.81c-.06-.77-.29-1.57-1.12-1.78v0a1.89,1.89,0,0,0,1.21-1.92,2.09,2.09,0,0,0-2.23-2.1h-4.11v7.63Z" transform="translate(-217.5 -375.58)"/><path class="cls-1" d="M321.92,411.72a1.2,1.2,0,0,1,1.26-1.17c.74,0,1.07.4,1.21,1.17Zm4,1c.11-1.7-.8-3.28-2.68-3.28a2.77,2.77,0,0,0-2.82,2.92,2.7,2.7,0,0,0,2.82,2.91,2.5,2.5,0,0,0,2.59-1.86h-1.34a1.26,1.26,0,0,1-1.2.71c-.84,0-1.31-.44-1.35-1.4Z" transform="translate(-217.5 -375.58)"/><path class="cls-1" d="M326.94,410.57H326v-1h.91v-.42a1.62,1.62,0,0,1,1.85-1.68c.26,0,.54,0,.8,0v1.13a5,5,0,0,0-.56,0c-.4,0-.57.17-.57.63v.33h1v1h-1v4.51h-1.52v-4.51Z" transform="translate(-217.5 -375.58)"/><path class="cls-1" d="M335.16,415.08h-1.45v-.77h0a2,2,0,0,1-1.69.92c-1.61,0-2-.91-2-2.28v-3.4h1.52v3.12c0,.91.27,1.36,1,1.36s1.18-.46,1.18-1.58v-2.9h1.52v5.53Z" transform="translate(-217.5 -375.58)"/><path class="cls-1" d="M338.65,413.77c-.93,0-1.23-.86-1.23-1.65s.37-1.57,1.23-1.57,1.29.8,1.29,1.7a1.35,1.35,0,0,1-1.29,1.52Zm2.73-4.22h-1.44v.74h0a1.72,1.72,0,0,0-1.65-.89,2.48,2.48,0,0,0-2.37,2.74c0,1.52.71,2.78,2.36,2.78a1.86,1.86,0,0,0,1.66-.86h0v.73c0,.79-.37,1.37-1.22,1.37a1,1,0,0,1-1.13-.76h-1.51c.08,1.26,1.35,1.77,2.44,1.77,2.54,0,2.86-1.54,2.86-2.45v-5.17Z" transform="translate(-217.5 -375.58)"/><path class="cls-1" d="M343.66,411.72a1.2,1.2,0,0,1,1.26-1.17c.74,0,1.07.4,1.21,1.17Zm4,1c.1-1.7-.81-3.28-2.69-3.28a2.77,2.77,0,0,0-2.82,2.92,2.7,2.7,0,0,0,2.82,2.91,2.5,2.5,0,0,0,2.59-1.86h-1.34a1.23,1.23,0,0,1-1.19.71c-.85,0-1.32-.44-1.36-1.4Z" transform="translate(-217.5 -375.58)"/><path class="cls-1" d="M349.6,411.72a1.2,1.2,0,0,1,1.26-1.17c.74,0,1.07.4,1.21,1.17Zm4,1c.11-1.7-.8-3.28-2.68-3.28a2.77,2.77,0,0,0-2.82,2.92,2.7,2.7,0,0,0,2.82,2.91,2.5,2.5,0,0,0,2.59-1.86h-1.34a1.24,1.24,0,0,1-1.19.71c-.85,0-1.32-.44-1.36-1.4Z" transform="translate(-217.5 -375.58)"/><path class="cls-1" d="M359.72,409.33h0l1,2.8h-2l1-2.8ZM356,415.08h1.7l.6-1.7h2.85l.57,1.7h1.75l-2.86-7.63h-1.72L356,415.08Z" transform="translate(-217.5 -375.58)"/><path class="cls-1" d="M366.3,413.77c-.93,0-1.23-.86-1.23-1.65s.37-1.57,1.23-1.57,1.29.8,1.29,1.7a1.35,1.35,0,0,1-1.29,1.52Zm2.73-4.22h-1.44v.74h0a1.72,1.72,0,0,0-1.64-.89,2.47,2.47,0,0,0-2.38,2.74c0,1.52.71,2.78,2.36,2.78a1.86,1.86,0,0,0,1.66-.86h0v.73c0,.79-.37,1.37-1.22,1.37a1,1,0,0,1-1.13-.76h-1.51c.08,1.26,1.35,1.77,2.44,1.77,2.54,0,2.86-1.54,2.86-2.45v-5.17Z" transform="translate(-217.5 -375.58)"/><path class="cls-1" d="M371.31,411.72a1.2,1.2,0,0,1,1.26-1.17c.74,0,1.07.4,1.21,1.17Zm4,1c.11-1.7-.8-3.28-2.68-3.28a2.77,2.77,0,0,0-2.82,2.92,2.7,2.7,0,0,0,2.82,2.91,2.5,2.5,0,0,0,2.59-1.86h-1.34a1.24,1.24,0,0,1-1.19.71c-.85,0-1.32-.44-1.36-1.4Z" transform="translate(-217.5 -375.58)"/><path class="cls-1" d="M376,409.55h1.44v.77h0a2,2,0,0,1,1.69-.92c1.61,0,2,.91,2,2.28v3.4h-1.52V412c0-.91-.27-1.36-1-1.36s-1.18.46-1.18,1.58v2.9H376v-5.53Z" transform="translate(-217.5 -375.58)"/><path class="cls-1" d="M385.82,411.5a1,1,0,0,0-1.12-.95c-1,0-1.3,1-1.3,1.79s.31,1.74,1.26,1.74a1.16,1.16,0,0,0,1.21-1.12h1.46a2.47,2.47,0,0,1-2.66,2.27,2.68,2.68,0,0,1-2.78-2.84,2.73,2.73,0,0,1,2.82-3,2.34,2.34,0,0,1,2.59,2.1Z" transform="translate(-217.5 -375.58)"/><path class="cls-1" d="M390.72,415.77a1.73,1.73,0,0,1-1.9,1.25c-.31,0-.62,0-.93,0v-1.25a8.69,8.69,0,0,0,.89,0,.72.72,0,0,0,.52-1l-1.94-5.18H389l1.25,3.79h0l1.21-3.79H393l-2.31,6.22Z" transform="translate(-217.5 -375.58)"/><path class="cls-1" d="M295.12,395.08c0,6.26-3.39,9.27-10.28,9.27s-10.32-3-10.32-9.27V381.22h7v12.31c0,2.31,0,5.19,3.39,5.19s3.29-2.88,3.29-5.19V381.22h7v13.86Z" transform="translate(-217.5 -375.58)"/><polygon class="cls-1" points="81.79 5.64 88.91 5.64 95.49 17.72 95.55 17.72 95.55 5.64 102.13 5.64 102.13 28.23 95.36 28.23 88.43 15.89 88.37 15.89 88.37 28.23 81.79 28.23 81.79 5.64 81.79 5.64"/><polygon class="cls-1" points="106.4 5.64 113.36 5.64 113.36 13.48 119.88 13.48 119.88 5.64 126.84 5.64 126.84 28.23 119.88 28.23 119.88 19.27 113.36 19.27 113.36 28.23 106.4 28.23 106.4 5.64 106.4 5.64"/><path class="cls-1" d="M362.15,389.64a3.62,3.62,0,0,0-3.63-3.32c-3.26,0-4.31,3.16-4.31,6.2s1.05,6.2,4.31,6.2c2.34,0,3.25-1.65,3.67-3.77H369c0,4.56-3.7,9.4-10.32,9.4-7.3,0-11.45-5.16-11.45-11.83,0-7.12,4.5-11.83,11.45-11.83,6.2,0,9.62,3.29,10.22,8.95Z" transform="translate(-217.5 -375.58)"/><path class="cls-1" d="M378.89,386.6h3.26c2.65,0,3.44.82,3.44,2.25,0,2-1.77,2.24-3.06,2.24h-3.64V386.6Zm-7,17.21h7v-7.88h3.7c2.75,0,2.94,2.25,3.13,4.4a16.52,16.52,0,0,0,.57,3.48h7c-.63-1-.66-3.73-.76-4.84-.25-2.82-1.42-4.9-3.32-5.63,2.31-.86,3.39-3.32,3.39-5.66,0-4.28-3.42-6.46-7.38-6.46H371.93v22.59Z" transform="translate(-217.5 -375.58)"/></svg>