<svg xmlns="http://www.w3.org/2000/svg" viewBox="0 0 48.14 39.88"><defs><style>.cls-1{fill:#007ac2;fill-rule:evenodd;}</style></defs><title>Asset 1</title><g id="Layer_2" data-name="Layer 2"><g id="Layer_1-2" data-name="Layer 1"><path class="cls-1" d="M25.45,28.31c.5,0,.43-.28.43-.81V25c0-.52-.05-.69.25-.69,1.05,0,1.33-.1,1.33-1V13.79c0-2.58-1.81-2.15-2.33-3.09-.72-1.28,1.36-1.28.61-4a1.49,1.49,0,0,0-1.63-1,1.49,1.49,0,0,0-1.63,1c-.75,2.75,1.34,2.75.61,4-.52.94-2.33.51-2.33,3.09v9.45c0,.93.28,1,1.33,1,.3,0,.25.17.25.69V27.5c0,.53-.06.81.43.81Z"/><path class="cls-1" d="M17.18,7.8c-.93,1-2.4,3.3-1.44,5.22,2,.75,1.8-6.18,4.23-6.06,1.2,1.11-.36,4.38-.84,5.82-.61,1.77-1.08,5.49-2.22,7.29-1,1.5-.24,6.21-.54,7.83-.81.81-3,.24-3.93.08,0-1.85-.24-3.32-.54-6.29,0-.6-.66-9.78-.15-10.89,1.05-2.31,6.77-6.72,7.56-7.56S22.42,0,23.36,0c.65.45.27,1.5.11,1.92-.92,2.31-4.95,4.59-6.29,5.88Z"/><path class="cls-1" d="M31.15,7.8c.9,1,2.37,3.3,1.44,5.22-2,.75-1.83-6.18-4.26-6.06-1.17,1.11.39,4.38.87,5.82.6,1.77,1.08,5.49,2.22,7.29.93,1.5.24,6.21.51,7.83.84.81,3,.24,4,.08a62.54,62.54,0,0,1,.51-6.29c.06-.6.69-9.78.18-10.89-1-2.31-6.78-6.72-7.56-7.56S25.91,0,25,0c-.69.45-.27,1.5-.12,1.92.94,2.31,4.95,4.59,6.3,5.88Z"/><path class="cls-1" d="M8.84,4.69c-.51.48-1.65.81-2.43,1.86C6.11,6,6.89,4.6,7.82,3.79A11.68,11.68,0,0,1,10.25,2.2c.31.69-.77,1.74-1.41,2.49Z"/><path class="cls-1" d="M7.25,8.45a18.91,18.91,0,0,0-3,2.61,9,9,0,0,1-.15-4.39c.43-1.38,1.12-2.91,2.29-3.39a13,13,0,0,0-.72,3.33C5.15,8.63,4.85,8.69,5,9c.12,0,.78-1.05,1.59-1.87,1-1,2.16-1.17,2.94-1.74a10.32,10.32,0,0,1-2.25,3.1Z"/><path class="cls-1" d="M3,16.77a10.88,10.88,0,0,1-1.38-5.41c.06-1.23.66-4.09,1.56-4.51-.27,2.59.43,2.83.15,5,0,.12-.3,2.35-.3,2.47.36-.06,0-2,4.15-4.9-.9,1.56-.48,2-2.1,4.12A7.48,7.48,0,0,0,3,16.77Z"/><path class="cls-1" d="M4.67,18.75a5.61,5.61,0,0,0-.93,2.5c-2.08-1.2-4.42-6-3.55-8.35C.73,14.7,1.48,15.09,2,16.59c.93,2.26.78,2.95,1.38,3.46a8.45,8.45,0,0,1,.66-3.58,24.66,24.66,0,0,1,1.45-2.41,5.72,5.72,0,0,1-.84,4.69Z"/><path class="cls-1" d="M6.53,22.84a25.94,25.94,0,0,1-.48,4C2.47,25.67.61,21.58.61,19.57,1.69,22,3.28,22,5.36,25.49c.18-1.32-.36-.33-.42-2.83s.6-2.7.69-4.32c.66.72.9,3.6.9,4.5Z"/><path class="cls-1" d="M9.5,28c.28,1.36.4,2.95.61,4.12-2-.75-2.56-.18-5-1.71-1.11-.6-3.1-3.13-3-4.93,2.41,2.67,2.83,2.37,4,3.36s2,2.17,2.73,2c.06-.72-1.77-2.29-1.53-6.79A12.56,12.56,0,0,1,9.5,28Z"/><path class="cls-1" d="M13.56,31.41a15.3,15.3,0,0,0,2.1,3.15,17.54,17.54,0,0,1-4.23.85c-1,0-4.63-1-5.83-3.43,2.07,1.11,2.1.84,4.87,1.44a38.4,38.4,0,0,0,3.93,1,16.9,16.9,0,0,1-2.7-2.22c-1-1.41-.81-3-1.75-4.18.64-.18,3.1,2.71,3.61,3.37Z"/><path class="cls-1" d="M39.32,4.69c.48.48,1.65.81,2.4,1.86.33-.57-.48-1.95-1.41-2.76A10.3,10.3,0,0,0,37.88,2.2c-.3.69.78,1.74,1.44,2.49Z"/><path class="cls-1" d="M40.91,8.45a20.37,20.37,0,0,1,3,2.61A8.87,8.87,0,0,0,44,6.67c-.39-1.38-1.12-2.91-2.29-3.39a11.85,11.85,0,0,1,.72,3.33c.51,2,.81,2.08.7,2.35-.13,0-.79-1.05-1.6-1.87s-2.13-1.17-2.94-1.74a10.68,10.68,0,0,0,2.28,3.1Z"/><path class="cls-1" d="M45.12,16.77a10.58,10.58,0,0,0,1.38-5.41c-.06-1.23-.66-4.09-1.53-4.51.24,2.59-.45,2.83-.15,5,0,.12.27,2.35.27,2.47-.33-.06,0-2-4.12-4.9.87,1.56.45,2,2.07,4.12a7.07,7.07,0,0,1,2.08,3.27Z"/><path class="cls-1" d="M43.5,18.75a6.14,6.14,0,0,1,.9,2.5c2.07-1.2,4.44-6,3.54-8.35-.51,1.8-1.29,2.19-1.8,3.69-1,2.26-.81,2.95-1.38,3.46a8.47,8.47,0,0,0-.69-3.58,19.85,19.85,0,0,0-1.45-2.41,5.7,5.7,0,0,0,.88,4.69Z"/><path class="cls-1" d="M41.6,22.84a25.56,25.56,0,0,0,.51,4c3.55-1.17,5.44-5.26,5.44-7.27C46.44,22,44.88,22,42.78,25.49c-.19-1.32.35-.33.42-2.83s-.61-2.7-.7-4.32c-.66.72-.9,3.6-.9,4.5Z"/><path class="cls-1" d="M38.63,28c-.27,1.36-.36,2.95-.57,4.12,2-.75,2.52-.18,4.95-1.71,1.12-.6,3.13-3.13,3-4.93-2.4,2.67-2.85,2.37-4,3.36s-2,2.17-2.76,2c-.06-.72,1.77-2.29,1.56-6.79a12,12,0,0,0-2.19,4Z"/><path class="cls-1" d="M34.57,31.41a12.87,12.87,0,0,1-2.11,3.15,18,18,0,0,0,4.27.85c1,0,4.6-1,5.8-3.43-2.07,1.11-2.1.84-4.87,1.44-2,.45-3.36,1.08-3.93,1,.12-.27,1.68-.9,2.7-2.22s.81-3,1.78-4.18c-.67-.18-3.13,2.71-3.64,3.37Z"/><path class="cls-1" d="M18.94,39.88l-.6-.3a13.17,13.17,0,0,1,10.37-4.29c6.55.36,6.1,1.89,9.62,1.65.39,0-.3.48-.3.48a12.16,12.16,0,0,1-7.67-.12c-4.21-1.44-6.94-2.32-11.42,2.58Z"/><path class="cls-1" d="M29.31,39.88l.6-.3a13.08,13.08,0,0,0-10.34-4.29c-6.58.36-6.13,1.89-9.65,1.65-.38,0,.31.48.31.48a12.13,12.13,0,0,0,7.66-.12c4.24-1.44,7-2.32,11.42,2.58Z"/></g></g></svg>